G04*
G04 #@! TF.GenerationSoftware,Altium Limited,Altium Designer,20.0.13 (296)*
G04*
G04 Layer_Color=16711935*
%FSLAX25Y25*%
%MOIN*%
G70*
G01*
G75*
%ADD78R,0.06706X0.06706*%
%ADD97C,0.06706*%
%ADD98R,0.07099X0.07099*%
%ADD99C,0.05997*%
%ADD100C,0.24422*%
%ADD101R,0.06706X0.06706*%
%ADD102C,0.06824*%
%ADD103R,0.06824X0.06824*%
%ADD104R,0.06800X0.06800*%
%ADD105C,0.06800*%
%ADD106R,0.06800X0.06800*%
%ADD107C,0.05599*%
%ADD108R,0.05599X0.05599*%
%ADD109C,0.06304*%
%ADD110R,0.07099X0.07099*%
%ADD111R,0.05599X0.05599*%
%ADD112R,0.06194X0.06194*%
%ADD113C,0.06194*%
%ADD114R,0.06194X0.06194*%
%ADD115O,0.04540X0.05721*%
%ADD116O,0.07099X0.04343*%
%ADD117C,0.07119*%
%ADD118R,0.07119X0.07119*%
%ADD119C,0.03800*%
%ADD120C,0.05398*%
%ADD121C,0.17800*%
D78*
X1531143Y493129D02*
D03*
X1551123D02*
D03*
X25118Y492913D02*
D03*
X45098D02*
D03*
X1551181Y233780D02*
D03*
D97*
X1523622Y251717D02*
D03*
X102362Y149606D02*
D03*
X1092159Y26942D02*
D03*
Y36942D02*
D03*
X1102159Y26942D02*
D03*
Y36942D02*
D03*
X1112159Y26942D02*
D03*
Y36942D02*
D03*
X1122159Y26942D02*
D03*
Y36942D02*
D03*
X1132159Y26942D02*
D03*
Y36942D02*
D03*
X1142159Y26942D02*
D03*
Y36942D02*
D03*
X1152159Y26942D02*
D03*
Y36942D02*
D03*
X1162159Y26942D02*
D03*
Y36942D02*
D03*
X1172159Y26942D02*
D03*
Y36942D02*
D03*
X1182159Y26942D02*
D03*
Y36942D02*
D03*
X1192159Y26942D02*
D03*
Y36942D02*
D03*
X1202159Y26942D02*
D03*
Y36942D02*
D03*
X1212159Y26942D02*
D03*
Y36942D02*
D03*
X1222159Y26942D02*
D03*
Y36942D02*
D03*
X1232159Y26942D02*
D03*
Y36942D02*
D03*
X1242159Y26942D02*
D03*
Y36942D02*
D03*
X1252159Y26942D02*
D03*
X1252060Y36942D02*
D03*
X1262159Y26942D02*
D03*
Y36942D02*
D03*
X1272159Y26942D02*
D03*
Y36942D02*
D03*
X1282159Y26942D02*
D03*
Y36961D02*
D03*
X1292159Y26942D02*
D03*
Y36961D02*
D03*
X1302159Y26942D02*
D03*
Y36942D02*
D03*
X1312159Y26942D02*
D03*
Y36942D02*
D03*
X1322159Y26942D02*
D03*
Y36942D02*
D03*
X1332159Y26942D02*
D03*
X1082159Y36942D02*
D03*
Y26942D02*
D03*
Y46942D02*
D03*
Y56942D02*
D03*
X1332159Y46942D02*
D03*
X1322159Y56942D02*
D03*
Y46942D02*
D03*
X1312159Y56942D02*
D03*
Y46942D02*
D03*
X1302159Y56942D02*
D03*
Y46942D02*
D03*
X1292159Y56942D02*
D03*
Y46942D02*
D03*
X1282159Y56942D02*
D03*
Y46942D02*
D03*
X1272159Y56942D02*
D03*
Y46942D02*
D03*
X1262159Y56942D02*
D03*
Y46942D02*
D03*
X1252060Y56942D02*
D03*
X1252159Y46942D02*
D03*
X1242159Y56942D02*
D03*
Y46942D02*
D03*
X1232159Y56942D02*
D03*
Y46942D02*
D03*
X1222159Y56942D02*
D03*
Y46942D02*
D03*
X1212159Y56942D02*
D03*
Y46942D02*
D03*
X1202159Y56942D02*
D03*
Y46942D02*
D03*
X1192159Y56942D02*
D03*
Y46942D02*
D03*
X1182159Y56942D02*
D03*
Y46942D02*
D03*
X1172159Y56942D02*
D03*
Y46942D02*
D03*
X1162159Y56942D02*
D03*
Y46942D02*
D03*
X1152159Y56942D02*
D03*
Y46942D02*
D03*
X1142159Y56942D02*
D03*
Y46942D02*
D03*
X1132159Y56942D02*
D03*
Y46942D02*
D03*
X1122159Y56942D02*
D03*
Y46942D02*
D03*
X1112159Y56942D02*
D03*
Y46942D02*
D03*
X1102159Y56942D02*
D03*
Y46942D02*
D03*
X1092159Y56942D02*
D03*
Y46942D02*
D03*
X1521123Y733130D02*
D03*
X1531123D02*
D03*
X1521123Y723130D02*
D03*
X1531123D02*
D03*
X1521123Y713130D02*
D03*
X1531123D02*
D03*
X1521123Y703129D02*
D03*
X1531123D02*
D03*
X1521123Y693129D02*
D03*
X1531123D02*
D03*
X1521123Y683130D02*
D03*
X1531123D02*
D03*
X1521123Y673130D02*
D03*
X1531123D02*
D03*
X1521123Y663130D02*
D03*
X1531123D02*
D03*
X1521123Y653129D02*
D03*
X1531123D02*
D03*
X1521123Y643129D02*
D03*
X1531123D02*
D03*
X1521123Y633130D02*
D03*
X1531123D02*
D03*
X1521123Y623130D02*
D03*
X1531123D02*
D03*
X1521123Y613130D02*
D03*
X1531123D02*
D03*
X1521123Y603129D02*
D03*
X1531123D02*
D03*
X1521123Y593129D02*
D03*
X1531123D02*
D03*
X1521123Y583130D02*
D03*
X1531123D02*
D03*
X1521123Y573130D02*
D03*
X1531123Y573228D02*
D03*
X1521123Y563130D02*
D03*
X1531123D02*
D03*
X1521123Y553129D02*
D03*
X1531123D02*
D03*
X1521123Y543129D02*
D03*
X1531143D02*
D03*
X1521123Y533130D02*
D03*
X1531143D02*
D03*
X1521123Y523130D02*
D03*
X1531123D02*
D03*
X1521123Y513130D02*
D03*
X1531123D02*
D03*
X1521123Y503129D02*
D03*
X1531123D02*
D03*
X1521123Y493129D02*
D03*
X1531123Y743129D02*
D03*
X1521123D02*
D03*
X1541123D02*
D03*
X1551123D02*
D03*
X1541123Y493129D02*
D03*
X1551123Y503129D02*
D03*
X1541123D02*
D03*
X1551123Y513130D02*
D03*
X1541123D02*
D03*
X1551123Y523130D02*
D03*
X1541123D02*
D03*
X1551123Y533130D02*
D03*
X1541123D02*
D03*
X1551123Y543129D02*
D03*
X1541123D02*
D03*
X1551123Y553129D02*
D03*
X1541123D02*
D03*
X1551123Y563130D02*
D03*
X1541123D02*
D03*
X1551123Y573228D02*
D03*
X1541123Y573130D02*
D03*
X1551123Y583130D02*
D03*
X1541123D02*
D03*
X1551123Y593129D02*
D03*
X1541123D02*
D03*
X1551123Y603129D02*
D03*
X1541123D02*
D03*
X1551123Y613130D02*
D03*
X1541123D02*
D03*
X1551123Y623130D02*
D03*
X1541123D02*
D03*
X1551123Y633130D02*
D03*
X1541123D02*
D03*
X1551123Y643129D02*
D03*
X1541123D02*
D03*
X1551123Y653129D02*
D03*
X1541123D02*
D03*
X1551123Y663130D02*
D03*
X1541123D02*
D03*
X1551123Y673130D02*
D03*
X1541123D02*
D03*
X1551123Y683130D02*
D03*
X1541123D02*
D03*
X1551123Y693129D02*
D03*
X1541123D02*
D03*
X1551123Y703129D02*
D03*
X1541123D02*
D03*
X1551123Y713130D02*
D03*
X1541123D02*
D03*
X1551123Y723130D02*
D03*
X1541123D02*
D03*
X1551123Y733130D02*
D03*
X1541123D02*
D03*
X1092047Y928819D02*
D03*
Y938819D02*
D03*
X1102047Y928819D02*
D03*
Y938819D02*
D03*
X1112047Y928819D02*
D03*
Y938819D02*
D03*
X1122047Y928819D02*
D03*
Y938819D02*
D03*
X1132047Y928819D02*
D03*
Y938819D02*
D03*
X1142047Y928819D02*
D03*
Y938819D02*
D03*
X1152047Y928819D02*
D03*
Y938819D02*
D03*
X1162047Y928819D02*
D03*
Y938819D02*
D03*
X1172047Y928819D02*
D03*
Y938819D02*
D03*
X1182047Y928819D02*
D03*
Y938819D02*
D03*
X1192047Y928819D02*
D03*
Y938819D02*
D03*
X1202047Y928819D02*
D03*
Y938819D02*
D03*
X1212047Y928819D02*
D03*
Y938819D02*
D03*
X1222047Y928819D02*
D03*
Y938819D02*
D03*
X1232047Y928819D02*
D03*
Y938819D02*
D03*
X1242047Y928819D02*
D03*
Y938819D02*
D03*
X1252047Y928819D02*
D03*
X1251949Y938819D02*
D03*
X1262047Y928819D02*
D03*
Y938819D02*
D03*
X1272047Y928819D02*
D03*
Y938819D02*
D03*
X1282047Y928819D02*
D03*
Y938839D02*
D03*
X1292047Y928819D02*
D03*
Y938839D02*
D03*
X1302047Y928819D02*
D03*
Y938819D02*
D03*
X1312047Y928819D02*
D03*
Y938819D02*
D03*
X1322047Y928819D02*
D03*
Y938819D02*
D03*
X1332047Y928819D02*
D03*
X1082047Y938819D02*
D03*
Y928819D02*
D03*
Y948819D02*
D03*
Y958819D02*
D03*
X1332047Y948819D02*
D03*
X1322047Y958819D02*
D03*
Y948819D02*
D03*
X1312047Y958819D02*
D03*
Y948819D02*
D03*
X1302047Y958819D02*
D03*
Y948819D02*
D03*
X1292047Y958819D02*
D03*
Y948819D02*
D03*
X1282047Y958819D02*
D03*
Y948819D02*
D03*
X1272047Y958819D02*
D03*
Y948819D02*
D03*
X1262047Y958819D02*
D03*
Y948819D02*
D03*
X1251949Y958819D02*
D03*
X1252047Y948819D02*
D03*
X1242047Y958819D02*
D03*
Y948819D02*
D03*
X1232047Y958819D02*
D03*
Y948819D02*
D03*
X1222047Y958819D02*
D03*
Y948819D02*
D03*
X1212047Y958819D02*
D03*
Y948819D02*
D03*
X1202047Y958819D02*
D03*
Y948819D02*
D03*
X1192047Y958819D02*
D03*
Y948819D02*
D03*
X1182047Y958819D02*
D03*
Y948819D02*
D03*
X1172047Y958819D02*
D03*
Y948819D02*
D03*
X1162047Y958819D02*
D03*
Y948819D02*
D03*
X1152047Y958819D02*
D03*
Y948819D02*
D03*
X1142047Y958819D02*
D03*
Y948819D02*
D03*
X1132047Y958819D02*
D03*
Y948819D02*
D03*
X1122047Y958819D02*
D03*
Y948819D02*
D03*
X1112047Y958819D02*
D03*
Y948819D02*
D03*
X1102047Y958819D02*
D03*
Y948819D02*
D03*
X1092047Y958819D02*
D03*
Y948819D02*
D03*
X672598Y928819D02*
D03*
Y938819D02*
D03*
X682598Y928819D02*
D03*
Y938819D02*
D03*
X692598Y928819D02*
D03*
Y938819D02*
D03*
X702598Y928819D02*
D03*
Y938819D02*
D03*
X712598Y928819D02*
D03*
Y938819D02*
D03*
X722598Y928819D02*
D03*
Y938819D02*
D03*
X732598Y928819D02*
D03*
Y938819D02*
D03*
X742598Y928819D02*
D03*
Y938819D02*
D03*
X752598Y928819D02*
D03*
Y938819D02*
D03*
X762598Y928819D02*
D03*
Y938819D02*
D03*
X772598Y928819D02*
D03*
Y938819D02*
D03*
X782598Y928819D02*
D03*
Y938819D02*
D03*
X792598Y928819D02*
D03*
Y938819D02*
D03*
X802598Y928819D02*
D03*
Y938819D02*
D03*
X812598Y928819D02*
D03*
Y938819D02*
D03*
X822598Y928819D02*
D03*
Y938819D02*
D03*
X832598Y928819D02*
D03*
X832500Y938819D02*
D03*
X842598Y928819D02*
D03*
Y938819D02*
D03*
X852598Y928819D02*
D03*
Y938819D02*
D03*
X862598Y928819D02*
D03*
Y938839D02*
D03*
X872598Y928819D02*
D03*
Y938839D02*
D03*
X882598Y928819D02*
D03*
Y938819D02*
D03*
X892598Y928819D02*
D03*
Y938819D02*
D03*
X902598Y928819D02*
D03*
Y938819D02*
D03*
X912598Y928819D02*
D03*
X662598Y938819D02*
D03*
Y928819D02*
D03*
Y948819D02*
D03*
Y958819D02*
D03*
X912598Y948819D02*
D03*
X902598Y958819D02*
D03*
Y948819D02*
D03*
X892598Y958819D02*
D03*
Y948819D02*
D03*
X882598Y958819D02*
D03*
Y948819D02*
D03*
X872598Y958819D02*
D03*
Y948819D02*
D03*
X862598Y958819D02*
D03*
Y948819D02*
D03*
X852598Y958819D02*
D03*
Y948819D02*
D03*
X842598Y958819D02*
D03*
Y948819D02*
D03*
X832500Y958819D02*
D03*
X832598Y948819D02*
D03*
X822598Y958819D02*
D03*
Y948819D02*
D03*
X812598Y958819D02*
D03*
Y948819D02*
D03*
X802598Y958819D02*
D03*
Y948819D02*
D03*
X792598Y958819D02*
D03*
Y948819D02*
D03*
X782598Y958819D02*
D03*
Y948819D02*
D03*
X772598Y958819D02*
D03*
Y948819D02*
D03*
X762598Y958819D02*
D03*
Y948819D02*
D03*
X752598Y958819D02*
D03*
Y948819D02*
D03*
X742598Y958819D02*
D03*
Y948819D02*
D03*
X732598Y958819D02*
D03*
Y948819D02*
D03*
X722598Y958819D02*
D03*
Y948819D02*
D03*
X712598Y958819D02*
D03*
Y948819D02*
D03*
X702598Y958819D02*
D03*
Y948819D02*
D03*
X692598Y958819D02*
D03*
Y948819D02*
D03*
X682598Y958819D02*
D03*
Y948819D02*
D03*
X672598Y958819D02*
D03*
Y948819D02*
D03*
X254016Y928819D02*
D03*
Y938819D02*
D03*
X264016Y928819D02*
D03*
Y938819D02*
D03*
X274016Y928819D02*
D03*
Y938819D02*
D03*
X284016Y928819D02*
D03*
Y938819D02*
D03*
X294016Y928819D02*
D03*
Y938819D02*
D03*
X304016Y928819D02*
D03*
Y938819D02*
D03*
X314016Y928819D02*
D03*
Y938819D02*
D03*
X324016Y928819D02*
D03*
Y938819D02*
D03*
X334016Y928819D02*
D03*
Y938819D02*
D03*
X344016Y928819D02*
D03*
Y938819D02*
D03*
X354016Y928819D02*
D03*
Y938819D02*
D03*
X364016Y928819D02*
D03*
Y938819D02*
D03*
X374016Y928819D02*
D03*
Y938819D02*
D03*
X384016Y928819D02*
D03*
Y938819D02*
D03*
X394016Y928819D02*
D03*
Y938819D02*
D03*
X404016Y928819D02*
D03*
Y938819D02*
D03*
X414016Y928819D02*
D03*
X413917Y938819D02*
D03*
X424016Y928819D02*
D03*
Y938819D02*
D03*
X434016Y928819D02*
D03*
Y938819D02*
D03*
X444016Y928819D02*
D03*
Y938839D02*
D03*
X454016Y928819D02*
D03*
Y938839D02*
D03*
X464016Y928819D02*
D03*
Y938819D02*
D03*
X474016Y928819D02*
D03*
Y938819D02*
D03*
X484016Y928819D02*
D03*
Y938819D02*
D03*
X494016Y928819D02*
D03*
X244016Y938819D02*
D03*
Y928819D02*
D03*
Y948819D02*
D03*
Y958819D02*
D03*
X494016Y948819D02*
D03*
X484016Y958819D02*
D03*
Y948819D02*
D03*
X474016Y958819D02*
D03*
Y948819D02*
D03*
X464016Y958819D02*
D03*
Y948819D02*
D03*
X454016Y958819D02*
D03*
Y948819D02*
D03*
X444016Y958819D02*
D03*
Y948819D02*
D03*
X434016Y958819D02*
D03*
Y948819D02*
D03*
X424016Y958819D02*
D03*
Y948819D02*
D03*
X413917Y958819D02*
D03*
X414016Y948819D02*
D03*
X404016Y958819D02*
D03*
Y948819D02*
D03*
X394016Y958819D02*
D03*
Y948819D02*
D03*
X384016Y958819D02*
D03*
Y948819D02*
D03*
X374016Y958819D02*
D03*
Y948819D02*
D03*
X364016Y958819D02*
D03*
Y948819D02*
D03*
X354016Y958819D02*
D03*
Y948819D02*
D03*
X344016Y958819D02*
D03*
Y948819D02*
D03*
X334016Y958819D02*
D03*
Y948819D02*
D03*
X324016Y958819D02*
D03*
Y948819D02*
D03*
X314016Y958819D02*
D03*
Y948819D02*
D03*
X304016Y958819D02*
D03*
Y948819D02*
D03*
X294016Y958819D02*
D03*
Y948819D02*
D03*
X284016Y958819D02*
D03*
Y948819D02*
D03*
X274016Y958819D02*
D03*
Y948819D02*
D03*
X264016Y958819D02*
D03*
Y948819D02*
D03*
X254016Y958819D02*
D03*
Y948819D02*
D03*
X35118Y732913D02*
D03*
X25118D02*
D03*
X35118Y722913D02*
D03*
X25118D02*
D03*
X35118Y712913D02*
D03*
X25118D02*
D03*
X35118Y702913D02*
D03*
X25118D02*
D03*
X35118Y692913D02*
D03*
X25118D02*
D03*
X35118Y682913D02*
D03*
X25118D02*
D03*
X35118Y672913D02*
D03*
X25118D02*
D03*
X35118Y662913D02*
D03*
X25118D02*
D03*
X35118Y652913D02*
D03*
X25118D02*
D03*
X35118Y642913D02*
D03*
X25118D02*
D03*
X35118Y632913D02*
D03*
X25118D02*
D03*
X35118Y622913D02*
D03*
X25118D02*
D03*
X35118Y612913D02*
D03*
X25118D02*
D03*
X35118Y602913D02*
D03*
X25118D02*
D03*
X35118Y592913D02*
D03*
X25118D02*
D03*
X35118Y582913D02*
D03*
X25118D02*
D03*
X35118Y572913D02*
D03*
X25118Y573012D02*
D03*
X35118Y562913D02*
D03*
X25118D02*
D03*
X35118Y552913D02*
D03*
X25118D02*
D03*
X35118Y542913D02*
D03*
X25118D02*
D03*
X35118Y532913D02*
D03*
X25118D02*
D03*
X35118Y522913D02*
D03*
X25118D02*
D03*
X35118Y512913D02*
D03*
X25118D02*
D03*
X35118Y502913D02*
D03*
X25118D02*
D03*
X35118Y492913D02*
D03*
X25118Y742913D02*
D03*
X35118D02*
D03*
X55118D02*
D03*
X45118D02*
D03*
X55118Y492913D02*
D03*
X45118Y502913D02*
D03*
X55118D02*
D03*
X45118Y512913D02*
D03*
X55118D02*
D03*
X45118Y522913D02*
D03*
X55118D02*
D03*
X45098Y532913D02*
D03*
X55118D02*
D03*
X45098Y542913D02*
D03*
X55118D02*
D03*
X45118Y552913D02*
D03*
X55118D02*
D03*
X45118Y562913D02*
D03*
X55118D02*
D03*
X45118Y573012D02*
D03*
X55118Y572913D02*
D03*
X45118Y582913D02*
D03*
X55118D02*
D03*
X45118Y592913D02*
D03*
X55118D02*
D03*
X45118Y602913D02*
D03*
X55118D02*
D03*
X45118Y612913D02*
D03*
X55118D02*
D03*
X45118Y622913D02*
D03*
X55118D02*
D03*
X45118Y632913D02*
D03*
X55118D02*
D03*
X45118Y642913D02*
D03*
X55118D02*
D03*
X45118Y652913D02*
D03*
X55118D02*
D03*
X45118Y662913D02*
D03*
X55118D02*
D03*
X45118Y672913D02*
D03*
X55118D02*
D03*
X45118Y682913D02*
D03*
X55118D02*
D03*
X45118Y692913D02*
D03*
X55118D02*
D03*
X45118Y702913D02*
D03*
X55118D02*
D03*
X45118Y712913D02*
D03*
X55118D02*
D03*
X45118Y722913D02*
D03*
X55118D02*
D03*
X45118Y732913D02*
D03*
X55118D02*
D03*
X515748Y389764D02*
D03*
X188976Y173228D02*
D03*
X200787Y122047D02*
D03*
X74803Y137795D02*
D03*
X1500000Y153543D02*
D03*
X299213Y118110D02*
D03*
X1531496Y366142D02*
D03*
X232535Y385827D02*
D03*
X190782Y465737D02*
D03*
X452756Y417323D02*
D03*
X874016Y55118D02*
D03*
X1500000Y795276D02*
D03*
X181102Y224410D02*
D03*
X192913Y78740D02*
D03*
X1551181Y243779D02*
D03*
Y253780D02*
D03*
Y263779D02*
D03*
Y273780D02*
D03*
Y283780D02*
D03*
X1561181Y233780D02*
D03*
Y243779D02*
D03*
Y253780D02*
D03*
Y263779D02*
D03*
Y273780D02*
D03*
Y283780D02*
D03*
D98*
X1003937Y295276D02*
D03*
D99*
X492908Y456227D02*
D03*
X492869Y475913D02*
D03*
X1366645Y211819D02*
D03*
X1346960Y211779D02*
D03*
X1046370Y866112D02*
D03*
X1066055Y866151D02*
D03*
D100*
X1062113Y26450D02*
D03*
X1352206Y26395D02*
D03*
X1520631Y763175D02*
D03*
X1520576Y473082D02*
D03*
X1062002Y928327D02*
D03*
X1352094Y928272D02*
D03*
X642553Y928327D02*
D03*
X932646Y928272D02*
D03*
X223970Y928327D02*
D03*
X514063Y928272D02*
D03*
X55665Y472866D02*
D03*
X55610Y762959D02*
D03*
X31496Y116240D02*
D03*
Y41240D02*
D03*
X1539370Y911516D02*
D03*
Y836516D02*
D03*
X663287Y31496D02*
D03*
X738287D02*
D03*
X1523622Y23622D02*
D03*
X1488189Y940945D02*
D03*
X43307Y169291D02*
D03*
X1425197Y425197D02*
D03*
X751968Y389764D02*
D03*
X149606Y397638D02*
D03*
X1019685Y826772D02*
D03*
X66929Y960630D02*
D03*
D101*
X1332159Y36961D02*
D03*
Y56942D02*
D03*
X1332047Y938839D02*
D03*
Y958819D02*
D03*
X912598Y938839D02*
D03*
Y958819D02*
D03*
X494016Y938839D02*
D03*
Y958819D02*
D03*
D102*
X318898Y49055D02*
D03*
Y39055D02*
D03*
X308898Y49055D02*
D03*
Y39055D02*
D03*
X318898Y59055D02*
D03*
D103*
X308898D02*
D03*
D104*
X522453Y426602D02*
D03*
X488189Y426181D02*
D03*
X216535Y422244D02*
D03*
Y466535D02*
D03*
D105*
X522453Y416760D02*
D03*
X488189Y416339D02*
D03*
X216535Y412402D02*
D03*
Y456693D02*
D03*
X144685Y212598D02*
D03*
D106*
X154528D02*
D03*
D107*
X976378Y346457D02*
D03*
Y354331D02*
D03*
Y362205D02*
D03*
Y370079D02*
D03*
Y377953D02*
D03*
Y385827D02*
D03*
Y393701D02*
D03*
Y401575D02*
D03*
Y409449D02*
D03*
X1039370Y444882D02*
D03*
X1031496D02*
D03*
X1023622D02*
D03*
X1015748D02*
D03*
X1007874D02*
D03*
X1000000D02*
D03*
X992126D02*
D03*
X984252D02*
D03*
X976378D02*
D03*
D108*
Y417323D02*
D03*
D109*
X177326Y306981D02*
D03*
X998937Y19685D02*
D03*
D110*
X167326Y306981D02*
D03*
X1008937Y19685D02*
D03*
D111*
X1047244Y444882D02*
D03*
D112*
X72677Y106614D02*
D03*
X992126Y171417D02*
D03*
X1482442Y840079D02*
D03*
D113*
X82677Y106614D02*
D03*
X72677Y96614D02*
D03*
X82677D02*
D03*
X72677Y86614D02*
D03*
X82677D02*
D03*
X72677Y76614D02*
D03*
X82677D02*
D03*
X72677Y66614D02*
D03*
X82677D02*
D03*
X72677Y56614D02*
D03*
X82677D02*
D03*
X72677Y46614D02*
D03*
X82677D02*
D03*
X845273Y25708D02*
D03*
X835273Y35708D02*
D03*
Y25708D02*
D03*
X825272Y35708D02*
D03*
Y25708D02*
D03*
X815273Y35708D02*
D03*
Y25708D02*
D03*
X805272Y35708D02*
D03*
Y25708D02*
D03*
X795272Y35708D02*
D03*
Y25708D02*
D03*
X785273Y35708D02*
D03*
Y25708D02*
D03*
X1002126Y171417D02*
D03*
X992126Y161417D02*
D03*
X1002126D02*
D03*
X992126Y151417D02*
D03*
X1002126D02*
D03*
X992126Y141417D02*
D03*
X1002126D02*
D03*
X992126Y131417D02*
D03*
X1002126D02*
D03*
X992126Y121417D02*
D03*
X1002126D02*
D03*
X992126Y111417D02*
D03*
X1002126D02*
D03*
X1472442Y840079D02*
D03*
X1482442Y850079D02*
D03*
X1472442D02*
D03*
X1482442Y860079D02*
D03*
X1472442D02*
D03*
X1482442Y870079D02*
D03*
X1472442D02*
D03*
X1482442Y880079D02*
D03*
X1472442D02*
D03*
X1482442Y890079D02*
D03*
X1472442D02*
D03*
X1482442Y900079D02*
D03*
X1472442D02*
D03*
D114*
X845273Y35708D02*
D03*
D115*
X1551181Y59842D02*
D03*
Y40157D02*
D03*
D116*
X1561811Y36220D02*
D03*
Y63779D02*
D03*
D117*
X48185Y292913D02*
D03*
Y280315D02*
D03*
X48207Y237008D02*
D03*
Y224410D02*
D03*
D118*
X48185Y267717D02*
D03*
X48207Y211811D02*
D03*
D119*
X505913Y319882D02*
D03*
Y144882D02*
D03*
D120*
X679913Y319882D02*
D03*
Y144882D02*
D03*
D121*
X777913Y329832D02*
D03*
X407913Y134832D02*
D03*
Y329832D02*
D03*
X777913Y134832D02*
D03*
M02*
