G04*
G04 #@! TF.GenerationSoftware,Altium Limited,Altium Designer,18.1.7 (191)*
G04*
G04 Layer_Color=8388736*
%FSLAX25Y25*%
%MOIN*%
G70*
G01*
G75*
%ADD19C,0.01000*%
%ADD48R,0.04803X0.04921*%
%ADD65R,0.10249X0.07493*%
%ADD66R,0.05131X0.06706*%
%ADD67R,0.11000X0.29500*%
G04:AMPARAMS|DCode=68|XSize=55.64mil|YSize=31.23mil|CornerRadius=9.81mil|HoleSize=0mil|Usage=FLASHONLY|Rotation=0.000|XOffset=0mil|YOffset=0mil|HoleType=Round|Shape=RoundedRectangle|*
%AMROUNDEDRECTD68*
21,1,0.05564,0.01161,0,0,0.0*
21,1,0.03602,0.03123,0,0,0.0*
1,1,0.01961,0.01801,-0.00581*
1,1,0.01961,-0.01801,-0.00581*
1,1,0.01961,-0.01801,0.00581*
1,1,0.01961,0.01801,0.00581*
%
%ADD68ROUNDEDRECTD68*%
G04:AMPARAMS|DCode=69|XSize=56.82mil|YSize=31.23mil|CornerRadius=6.9mil|HoleSize=0mil|Usage=FLASHONLY|Rotation=270.000|XOffset=0mil|YOffset=0mil|HoleType=Round|Shape=RoundedRectangle|*
%AMROUNDEDRECTD69*
21,1,0.05682,0.01742,0,0,270.0*
21,1,0.04301,0.03123,0,0,270.0*
1,1,0.01381,-0.00871,-0.02151*
1,1,0.01381,-0.00871,0.02151*
1,1,0.01381,0.00871,0.02151*
1,1,0.01381,0.00871,-0.02151*
%
%ADD69ROUNDEDRECTD69*%
%ADD70R,0.02020X0.03398*%
%ADD71R,0.03359X0.05131*%
G04:AMPARAMS|DCode=72|XSize=69.81mil|YSize=24.14mil|CornerRadius=6.02mil|HoleSize=0mil|Usage=FLASHONLY|Rotation=90.000|XOffset=0mil|YOffset=0mil|HoleType=Round|Shape=RoundedRectangle|*
%AMROUNDEDRECTD72*
21,1,0.06981,0.01211,0,0,90.0*
21,1,0.05778,0.02414,0,0,90.0*
1,1,0.01204,0.00605,0.02889*
1,1,0.01204,0.00605,-0.02889*
1,1,0.01204,-0.00605,-0.02889*
1,1,0.01204,-0.00605,0.02889*
%
%ADD72ROUNDEDRECTD72*%
G04:AMPARAMS|DCode=73|XSize=85.56mil|YSize=31.62mil|CornerRadius=6.95mil|HoleSize=0mil|Usage=FLASHONLY|Rotation=270.000|XOffset=0mil|YOffset=0mil|HoleType=Round|Shape=RoundedRectangle|*
%AMROUNDEDRECTD73*
21,1,0.08556,0.01772,0,0,270.0*
21,1,0.07165,0.03162,0,0,270.0*
1,1,0.01391,-0.00886,-0.03583*
1,1,0.01391,-0.00886,0.03583*
1,1,0.01391,0.00886,0.03583*
1,1,0.01391,0.00886,-0.03583*
%
%ADD73ROUNDEDRECTD73*%
G04:AMPARAMS|DCode=74|XSize=85.56mil|YSize=31.62mil|CornerRadius=6.95mil|HoleSize=0mil|Usage=FLASHONLY|Rotation=180.000|XOffset=0mil|YOffset=0mil|HoleType=Round|Shape=RoundedRectangle|*
%AMROUNDEDRECTD74*
21,1,0.08556,0.01772,0,0,180.0*
21,1,0.07165,0.03162,0,0,180.0*
1,1,0.01391,-0.03583,0.00886*
1,1,0.01391,0.03583,0.00886*
1,1,0.01391,0.03583,-0.00886*
1,1,0.01391,-0.03583,-0.00886*
%
%ADD74ROUNDEDRECTD74*%
%ADD75R,0.06706X0.05918*%
%ADD76R,0.04737X0.04343*%
%ADD77R,0.07099X0.01981*%
%ADD78R,0.01981X0.07099*%
%ADD79R,0.07099X0.03950*%
%ADD80R,0.12611X0.09068*%
%ADD81R,0.09068X0.12611*%
%ADD82R,0.03950X0.05918*%
%ADD83R,0.05918X0.03950*%
%ADD84R,0.02800X0.08800*%
%ADD85R,0.06706X0.06706*%
%ADD86R,0.06115X0.02375*%
%ADD87O,0.07296X0.01981*%
%ADD88O,0.01981X0.07296*%
%ADD89C,0.09843*%
%ADD90R,0.05131X0.09461*%
%ADD91R,0.05524X0.04934*%
%ADD92R,0.04737X0.05131*%
%ADD93R,0.05524X0.06800*%
%ADD94R,0.05131X0.04737*%
%ADD95R,0.04934X0.05524*%
%ADD96R,0.09461X0.05131*%
%ADD97R,0.06800X0.05524*%
%ADD98R,0.06706X0.05131*%
G04:AMPARAMS|DCode=99|XSize=55.64mil|YSize=31.23mil|CornerRadius=9.81mil|HoleSize=0mil|Usage=FLASHONLY|Rotation=90.000|XOffset=0mil|YOffset=0mil|HoleType=Round|Shape=RoundedRectangle|*
%AMROUNDEDRECTD99*
21,1,0.05564,0.01161,0,0,90.0*
21,1,0.03602,0.03123,0,0,90.0*
1,1,0.01961,0.00581,0.01801*
1,1,0.01961,0.00581,-0.01801*
1,1,0.01961,-0.00581,-0.01801*
1,1,0.01961,-0.00581,0.01801*
%
%ADD99ROUNDEDRECTD99*%
%ADD100C,0.06706*%
%ADD101C,0.06824*%
%ADD102R,0.06824X0.06824*%
%ADD103C,0.07119*%
%ADD104R,0.07119X0.07119*%
%ADD105R,0.06194X0.06194*%
%ADD106C,0.06194*%
%ADD107C,0.05599*%
%ADD108R,0.05599X0.05599*%
%ADD109C,0.05997*%
%ADD110C,0.06304*%
%ADD111R,0.07099X0.07099*%
%ADD112R,0.07099X0.07099*%
%ADD113C,0.24422*%
%ADD114C,0.03800*%
%ADD115C,0.05398*%
%ADD116C,0.17800*%
%ADD117O,0.04540X0.05721*%
%ADD118O,0.07099X0.04343*%
%ADD119R,0.06800X0.06800*%
%ADD120C,0.06800*%
%ADD121R,0.06706X0.06706*%
%ADD122R,0.06194X0.06194*%
%ADD123R,0.05599X0.05599*%
%ADD124R,0.06800X0.06800*%
D19*
X19685Y984252D02*
G03*
X0Y964567I0J-19685D01*
G01*
X0Y19685D02*
G03*
X19685Y0I19685J0D01*
G01*
X1555118Y0D02*
G03*
X1574803Y19685I0J19685D01*
G01*
X1574803Y964567D02*
G03*
X1555118Y984252I-19685J0D01*
G01*
X19685D02*
X1555118D01*
X19685Y0D02*
X1555118D01*
X0Y19685D02*
Y964567D01*
X1574803Y19685D02*
Y964567D01*
D48*
X232283Y33366D02*
D03*
Y21752D02*
D03*
D65*
X1381890Y268307D02*
D03*
Y282874D02*
D03*
D66*
X154291Y927362D02*
D03*
Y962402D02*
D03*
X164291Y927362D02*
D03*
Y962402D02*
D03*
X174291Y927362D02*
D03*
Y962402D02*
D03*
X184291Y927362D02*
D03*
Y962402D02*
D03*
X532559Y808858D02*
D03*
Y773819D02*
D03*
X522559Y808858D02*
D03*
Y773819D02*
D03*
X564055Y808858D02*
D03*
Y773819D02*
D03*
X554055Y808858D02*
D03*
Y773819D02*
D03*
D67*
X249408Y62992D02*
D03*
X230908D02*
D03*
D68*
X245098Y153347D02*
D03*
Y145866D02*
D03*
X235216D02*
D03*
Y149606D02*
D03*
Y153347D02*
D03*
D69*
X116614Y33090D02*
D03*
X109134D02*
D03*
X112874Y24783D02*
D03*
X125984Y149606D02*
D03*
X129724Y141299D02*
D03*
X122244D02*
D03*
X173228Y149823D02*
D03*
X176969Y141516D02*
D03*
X169488D02*
D03*
D70*
X755905Y450669D02*
D03*
X757874D02*
D03*
X759842D02*
D03*
Y444882D02*
D03*
X757874D02*
D03*
X755905D02*
D03*
D71*
X1476181Y345669D02*
D03*
X1468701D02*
D03*
Y355118D02*
D03*
X1472441D02*
D03*
X1476181D02*
D03*
D72*
X689272Y429646D02*
D03*
X691831D02*
D03*
X694390D02*
D03*
X696949D02*
D03*
X699508D02*
D03*
X702067D02*
D03*
X704626D02*
D03*
X707185D02*
D03*
X709744D02*
D03*
X712303D02*
D03*
Y452244D02*
D03*
X709744D02*
D03*
X707185D02*
D03*
X704626D02*
D03*
X702067D02*
D03*
X699508D02*
D03*
X696949D02*
D03*
X694390D02*
D03*
X691831D02*
D03*
X689272D02*
D03*
X240453Y429646D02*
D03*
X243012D02*
D03*
X245571D02*
D03*
X248130D02*
D03*
X250689D02*
D03*
X253248D02*
D03*
X255807D02*
D03*
X258366D02*
D03*
X260925D02*
D03*
X263484D02*
D03*
Y452244D02*
D03*
X260925D02*
D03*
X258366D02*
D03*
X255807D02*
D03*
X253248D02*
D03*
X250689D02*
D03*
X248130D02*
D03*
X245571D02*
D03*
X243012D02*
D03*
X240453D02*
D03*
X319193Y429646D02*
D03*
X321752D02*
D03*
X324311D02*
D03*
X326870D02*
D03*
X329429D02*
D03*
X331988D02*
D03*
X334547D02*
D03*
X337106D02*
D03*
X339665D02*
D03*
X342224D02*
D03*
Y452244D02*
D03*
X339665D02*
D03*
X337106D02*
D03*
X334547D02*
D03*
X331988D02*
D03*
X329429D02*
D03*
X326870D02*
D03*
X324311D02*
D03*
X321752D02*
D03*
X319193D02*
D03*
X358563Y429646D02*
D03*
X361122D02*
D03*
X363681D02*
D03*
X366240D02*
D03*
X368799D02*
D03*
X371358D02*
D03*
X373917D02*
D03*
X376476D02*
D03*
X379035D02*
D03*
X381594D02*
D03*
Y452244D02*
D03*
X379035D02*
D03*
X376476D02*
D03*
X373917D02*
D03*
X371358D02*
D03*
X368799D02*
D03*
X366240D02*
D03*
X363681D02*
D03*
X361122D02*
D03*
X358563D02*
D03*
X279823Y429646D02*
D03*
X282382D02*
D03*
X284941D02*
D03*
X287500D02*
D03*
X290059D02*
D03*
X292618D02*
D03*
X295177D02*
D03*
X297736D02*
D03*
X300295D02*
D03*
X302854D02*
D03*
Y452244D02*
D03*
X300295D02*
D03*
X297736D02*
D03*
X295177D02*
D03*
X292618D02*
D03*
X290059D02*
D03*
X287500D02*
D03*
X284941D02*
D03*
X282382D02*
D03*
X279823D02*
D03*
X397933Y429646D02*
D03*
X400492D02*
D03*
X403051D02*
D03*
X405610D02*
D03*
X408169D02*
D03*
X410728D02*
D03*
X413287D02*
D03*
X415846D02*
D03*
X418405D02*
D03*
X420965D02*
D03*
Y452244D02*
D03*
X418405D02*
D03*
X415846D02*
D03*
X413287D02*
D03*
X410728D02*
D03*
X408169D02*
D03*
X405610D02*
D03*
X403051D02*
D03*
X400492D02*
D03*
X397933D02*
D03*
X811319Y429646D02*
D03*
X813878D02*
D03*
X816437D02*
D03*
X818996D02*
D03*
X821555D02*
D03*
X824114D02*
D03*
X826673D02*
D03*
X829232D02*
D03*
X831791D02*
D03*
X834350D02*
D03*
Y452244D02*
D03*
X831791D02*
D03*
X829232D02*
D03*
X826673D02*
D03*
X824114D02*
D03*
X821555D02*
D03*
X818996D02*
D03*
X816437D02*
D03*
X813878D02*
D03*
X811319D02*
D03*
X850689Y429646D02*
D03*
X853248D02*
D03*
X855807D02*
D03*
X858366D02*
D03*
X860925D02*
D03*
X863484D02*
D03*
X866043D02*
D03*
X868602D02*
D03*
X871161D02*
D03*
X873720D02*
D03*
Y452244D02*
D03*
X871161D02*
D03*
X868602D02*
D03*
X866043D02*
D03*
X863484D02*
D03*
X860925D02*
D03*
X858366D02*
D03*
X855807D02*
D03*
X853248D02*
D03*
X850689D02*
D03*
X890059Y429646D02*
D03*
X892618D02*
D03*
X895177D02*
D03*
X897736D02*
D03*
X900295D02*
D03*
X902854D02*
D03*
X905413D02*
D03*
X907973D02*
D03*
X910532D02*
D03*
X913091D02*
D03*
Y452244D02*
D03*
X910532D02*
D03*
X907973D02*
D03*
X905413D02*
D03*
X902854D02*
D03*
X900295D02*
D03*
X897736D02*
D03*
X895177D02*
D03*
X892618D02*
D03*
X890059D02*
D03*
X960925Y291850D02*
D03*
X963484D02*
D03*
X966043D02*
D03*
X968602D02*
D03*
X971161D02*
D03*
X973720D02*
D03*
X976280D02*
D03*
X978839D02*
D03*
X981398D02*
D03*
X983957D02*
D03*
Y314449D02*
D03*
X981398D02*
D03*
X978839D02*
D03*
X976280D02*
D03*
X973720D02*
D03*
X971161D02*
D03*
X968602D02*
D03*
X966043D02*
D03*
X963484D02*
D03*
X960925D02*
D03*
X649902Y429646D02*
D03*
X652461D02*
D03*
X655020D02*
D03*
X657579D02*
D03*
X660138D02*
D03*
X662697D02*
D03*
X665256D02*
D03*
X667815D02*
D03*
X670374D02*
D03*
X672933D02*
D03*
Y452244D02*
D03*
X670374D02*
D03*
X667815D02*
D03*
X665256D02*
D03*
X662697D02*
D03*
X660138D02*
D03*
X657579D02*
D03*
X655020D02*
D03*
X652461D02*
D03*
X649902D02*
D03*
X929429Y429646D02*
D03*
X931988D02*
D03*
X934547D02*
D03*
X937106D02*
D03*
X939665D02*
D03*
X942224D02*
D03*
X944783D02*
D03*
X947342D02*
D03*
X949902D02*
D03*
X952461D02*
D03*
Y452244D02*
D03*
X949902D02*
D03*
X947342D02*
D03*
X944783D02*
D03*
X942224D02*
D03*
X939665D02*
D03*
X937106D02*
D03*
X934547D02*
D03*
X931988D02*
D03*
X929429D02*
D03*
D73*
X1011437Y64862D02*
D03*
X1006437D02*
D03*
X1001437D02*
D03*
X996437D02*
D03*
Y45374D02*
D03*
X1001437D02*
D03*
X1006437D02*
D03*
X1011437D02*
D03*
X614547Y793425D02*
D03*
X619547D02*
D03*
X624547D02*
D03*
X629547D02*
D03*
Y812874D02*
D03*
X624547D02*
D03*
X619547D02*
D03*
X614547D02*
D03*
X583051Y793425D02*
D03*
X588051D02*
D03*
X593051D02*
D03*
X598051D02*
D03*
Y812874D02*
D03*
X593051D02*
D03*
X588051D02*
D03*
X583051D02*
D03*
D74*
X49095Y374390D02*
D03*
Y379390D02*
D03*
Y384390D02*
D03*
Y389390D02*
D03*
X29646D02*
D03*
Y384390D02*
D03*
Y379390D02*
D03*
Y374390D02*
D03*
X60905Y913760D02*
D03*
Y918760D02*
D03*
Y923760D02*
D03*
Y928760D02*
D03*
X41457D02*
D03*
Y923760D02*
D03*
Y918760D02*
D03*
Y913760D02*
D03*
X60905Y882264D02*
D03*
Y887264D02*
D03*
Y892264D02*
D03*
Y897264D02*
D03*
X41457D02*
D03*
Y892264D02*
D03*
Y887264D02*
D03*
Y882264D02*
D03*
X60905Y850768D02*
D03*
Y855768D02*
D03*
Y860768D02*
D03*
Y865768D02*
D03*
X41457D02*
D03*
Y860768D02*
D03*
Y855768D02*
D03*
Y850768D02*
D03*
X72716Y819272D02*
D03*
Y824272D02*
D03*
Y829272D02*
D03*
Y834272D02*
D03*
X53268D02*
D03*
Y829272D02*
D03*
Y824272D02*
D03*
Y819272D02*
D03*
X84528Y787776D02*
D03*
Y792776D02*
D03*
Y797776D02*
D03*
Y802776D02*
D03*
X65079D02*
D03*
Y797776D02*
D03*
Y792776D02*
D03*
Y787776D02*
D03*
X64842Y427237D02*
D03*
Y432237D02*
D03*
Y437237D02*
D03*
Y442237D02*
D03*
X45394D02*
D03*
Y437237D02*
D03*
Y432237D02*
D03*
Y427237D02*
D03*
D75*
X1433071Y247468D02*
D03*
Y256469D02*
D03*
D76*
X1492126Y90114D02*
D03*
Y83114D02*
D03*
X1413386Y252406D02*
D03*
Y259405D02*
D03*
X1492126Y295713D02*
D03*
Y302713D02*
D03*
X1531496Y331146D02*
D03*
Y338146D02*
D03*
X1484252Y90114D02*
D03*
Y83114D02*
D03*
D77*
X1036417Y367126D02*
D03*
Y369094D02*
D03*
Y371063D02*
D03*
Y373031D02*
D03*
Y375000D02*
D03*
Y376969D02*
D03*
Y378937D02*
D03*
Y380906D02*
D03*
Y382874D02*
D03*
Y384842D02*
D03*
Y386811D02*
D03*
Y388779D02*
D03*
X1002953D02*
D03*
Y386811D02*
D03*
Y384842D02*
D03*
Y382874D02*
D03*
Y380906D02*
D03*
Y378937D02*
D03*
Y376969D02*
D03*
Y375000D02*
D03*
Y373031D02*
D03*
Y371063D02*
D03*
Y369094D02*
D03*
Y367126D02*
D03*
D78*
X1030512Y394685D02*
D03*
X1028543D02*
D03*
X1026575D02*
D03*
X1024606D02*
D03*
X1022638D02*
D03*
X1020669D02*
D03*
X1018701D02*
D03*
X1016732D02*
D03*
X1014764D02*
D03*
X1012795D02*
D03*
X1010827D02*
D03*
X1008858D02*
D03*
Y361221D02*
D03*
X1010827D02*
D03*
X1012795D02*
D03*
X1014764D02*
D03*
X1016732D02*
D03*
X1018701D02*
D03*
X1020669D02*
D03*
X1022638D02*
D03*
X1024606D02*
D03*
X1026575D02*
D03*
X1028543D02*
D03*
X1030512D02*
D03*
D79*
X77874Y291796D02*
D03*
Y272111D02*
D03*
Y277032D02*
D03*
Y281953D02*
D03*
Y286875D02*
D03*
Y296717D02*
D03*
X77851Y224472D02*
D03*
Y204787D02*
D03*
Y209708D02*
D03*
Y214629D02*
D03*
Y219551D02*
D03*
Y229393D02*
D03*
D80*
X88701Y262071D02*
D03*
Y306756D02*
D03*
X1560532Y103150D02*
D03*
Y133071D02*
D03*
X88678Y194747D02*
D03*
Y239433D02*
D03*
X1560532Y162205D02*
D03*
Y192126D02*
D03*
D81*
X167027Y346437D02*
D03*
X132185D02*
D03*
X170965Y250492D02*
D03*
X136122D02*
D03*
X1402362Y18209D02*
D03*
X1432283D02*
D03*
X1461417D02*
D03*
X1491339D02*
D03*
D82*
X156988Y357264D02*
D03*
X152067D02*
D03*
X147146D02*
D03*
X142224D02*
D03*
X160925Y261319D02*
D03*
X156004D02*
D03*
X151083D02*
D03*
X146161D02*
D03*
X1412402Y29035D02*
D03*
X1417323D02*
D03*
X1422244D02*
D03*
X1471457D02*
D03*
X1476378D02*
D03*
X1481299D02*
D03*
D83*
X1549705Y113189D02*
D03*
Y118110D02*
D03*
Y123031D02*
D03*
Y172244D02*
D03*
Y177165D02*
D03*
Y182087D02*
D03*
D84*
X663779Y328543D02*
D03*
X666929D02*
D03*
X663779Y311221D02*
D03*
X666929D02*
D03*
X654331Y328543D02*
D03*
X657480D02*
D03*
X654330Y311221D02*
D03*
X657480D02*
D03*
X648032Y328543D02*
D03*
X651181D02*
D03*
X648031Y311221D02*
D03*
X651181D02*
D03*
X638583Y328543D02*
D03*
X641732D02*
D03*
X638582Y311221D02*
D03*
X641732D02*
D03*
X632283Y328543D02*
D03*
X632283Y311221D02*
D03*
X622835Y328543D02*
D03*
X625984D02*
D03*
X622834Y311221D02*
D03*
X625984D02*
D03*
X616535Y328543D02*
D03*
X616535Y311221D02*
D03*
X607087Y328543D02*
D03*
X610236D02*
D03*
X607086Y311221D02*
D03*
X610236D02*
D03*
X600787Y328543D02*
D03*
X600787Y311221D02*
D03*
X591339Y328543D02*
D03*
X594488D02*
D03*
X591338Y311221D02*
D03*
X594488D02*
D03*
X585039Y328543D02*
D03*
X585039Y311221D02*
D03*
X575591Y328543D02*
D03*
X578740D02*
D03*
X575590Y311221D02*
D03*
X578740D02*
D03*
X569291Y328543D02*
D03*
X569291Y311221D02*
D03*
X559842Y328543D02*
D03*
X562992D02*
D03*
X559842Y311221D02*
D03*
X562992D02*
D03*
X550394Y328543D02*
D03*
X553543D02*
D03*
X550394Y311221D02*
D03*
X553543D02*
D03*
X544095Y328543D02*
D03*
X547244D02*
D03*
X544094Y311221D02*
D03*
X547244D02*
D03*
X534646Y328543D02*
D03*
X537795D02*
D03*
X534646Y311221D02*
D03*
X537795D02*
D03*
X528346Y328543D02*
D03*
X528346Y311221D02*
D03*
X518898Y328543D02*
D03*
X522047D02*
D03*
X518898Y311221D02*
D03*
X522047D02*
D03*
X670079Y328543D02*
D03*
X670078Y311221D02*
D03*
X635433Y328543D02*
D03*
X644882D02*
D03*
X660630D02*
D03*
X635433Y311221D02*
D03*
X644882D02*
D03*
X660630D02*
D03*
X603937Y328543D02*
D03*
X613386D02*
D03*
X619685D02*
D03*
X629134D02*
D03*
X603937Y311221D02*
D03*
X613386D02*
D03*
X619685D02*
D03*
X629134D02*
D03*
X572441Y328543D02*
D03*
X581890D02*
D03*
X588189D02*
D03*
X597638D02*
D03*
X572441Y311221D02*
D03*
X581890D02*
D03*
X588189D02*
D03*
X597638D02*
D03*
X540945Y328543D02*
D03*
X556693D02*
D03*
X566142D02*
D03*
X540945Y311221D02*
D03*
X556693D02*
D03*
X566142D02*
D03*
X515748Y328543D02*
D03*
X525197D02*
D03*
X531496D02*
D03*
X515748Y311221D02*
D03*
X525197D02*
D03*
X531496D02*
D03*
Y136221D02*
D03*
X525197D02*
D03*
X515748D02*
D03*
X531496Y153543D02*
D03*
X525197D02*
D03*
X515748D02*
D03*
X566142Y136221D02*
D03*
X556693D02*
D03*
X540945D02*
D03*
X566142Y153543D02*
D03*
X556693D02*
D03*
X540945D02*
D03*
X597638Y136221D02*
D03*
X588189D02*
D03*
X581890D02*
D03*
X572441D02*
D03*
X597638Y153543D02*
D03*
X588189D02*
D03*
X581890D02*
D03*
X572441D02*
D03*
X629134Y136221D02*
D03*
X619685D02*
D03*
X613386D02*
D03*
X603937D02*
D03*
X629134Y153543D02*
D03*
X619685D02*
D03*
X613386D02*
D03*
X603937D02*
D03*
X660630Y136221D02*
D03*
X644882D02*
D03*
X635433D02*
D03*
X660630Y153543D02*
D03*
X644882D02*
D03*
X635433D02*
D03*
X670078Y136221D02*
D03*
X670079Y153543D02*
D03*
X522047Y136221D02*
D03*
X518898D02*
D03*
X522047Y153543D02*
D03*
X518898D02*
D03*
X528346Y136221D02*
D03*
X528346Y153543D02*
D03*
X537795Y136221D02*
D03*
X534646D02*
D03*
X537795Y153543D02*
D03*
X534646D02*
D03*
X547244Y136221D02*
D03*
X544094D02*
D03*
X547244Y153543D02*
D03*
X544095D02*
D03*
X553543Y136221D02*
D03*
X550394D02*
D03*
X553543Y153543D02*
D03*
X550394D02*
D03*
X562992Y136221D02*
D03*
X559842D02*
D03*
X562992Y153543D02*
D03*
X559842D02*
D03*
X569291Y136221D02*
D03*
X569291Y153543D02*
D03*
X578740Y136221D02*
D03*
X575590D02*
D03*
X578740Y153543D02*
D03*
X575591D02*
D03*
X585039Y136221D02*
D03*
X585039Y153543D02*
D03*
X594488Y136221D02*
D03*
X591338D02*
D03*
X594488Y153543D02*
D03*
X591339D02*
D03*
X600787Y136221D02*
D03*
X600787Y153543D02*
D03*
X610236Y136221D02*
D03*
X607086D02*
D03*
X610236Y153543D02*
D03*
X607087D02*
D03*
X616535Y136221D02*
D03*
X616535Y153543D02*
D03*
X625984Y136221D02*
D03*
X622834D02*
D03*
X625984Y153543D02*
D03*
X622835D02*
D03*
X632283Y136221D02*
D03*
X632283Y153543D02*
D03*
X641732Y136221D02*
D03*
X638582D02*
D03*
X641732Y153543D02*
D03*
X638583D02*
D03*
X651181Y136221D02*
D03*
X648031D02*
D03*
X651181Y153543D02*
D03*
X648032D02*
D03*
X657480Y136221D02*
D03*
X654330D02*
D03*
X657480Y153543D02*
D03*
X654331D02*
D03*
X666929Y136221D02*
D03*
X663779D02*
D03*
X666929Y153543D02*
D03*
X663779D02*
D03*
D85*
X1561811Y53937D02*
D03*
Y46063D02*
D03*
X25118Y492913D02*
D03*
X45098D02*
D03*
X1531143Y493129D02*
D03*
X1551123D02*
D03*
X1551181Y233780D02*
D03*
D86*
Y44882D02*
D03*
Y47441D02*
D03*
Y50000D02*
D03*
Y52559D02*
D03*
Y55118D02*
D03*
D87*
X1458366Y274606D02*
D03*
Y272638D02*
D03*
Y270669D02*
D03*
Y268701D02*
D03*
Y266732D02*
D03*
Y264764D02*
D03*
Y262795D02*
D03*
Y260827D02*
D03*
Y258858D02*
D03*
Y256890D02*
D03*
Y254921D02*
D03*
Y252953D02*
D03*
Y250984D02*
D03*
Y249016D02*
D03*
Y247047D02*
D03*
Y245079D02*
D03*
X1502264D02*
D03*
Y247047D02*
D03*
Y249016D02*
D03*
Y250984D02*
D03*
Y252953D02*
D03*
Y254921D02*
D03*
Y256890D02*
D03*
Y258858D02*
D03*
Y260827D02*
D03*
Y262795D02*
D03*
Y264764D02*
D03*
Y266732D02*
D03*
Y268701D02*
D03*
Y270669D02*
D03*
Y272638D02*
D03*
Y274606D02*
D03*
D88*
X1465551Y237894D02*
D03*
X1467520D02*
D03*
X1469488D02*
D03*
X1471457D02*
D03*
X1473425D02*
D03*
X1475394D02*
D03*
X1477362D02*
D03*
X1479331D02*
D03*
X1481299D02*
D03*
X1483268D02*
D03*
X1485236D02*
D03*
X1487205D02*
D03*
X1489173D02*
D03*
X1491142D02*
D03*
X1493110D02*
D03*
X1495079D02*
D03*
Y281791D02*
D03*
X1493110D02*
D03*
X1491142D02*
D03*
X1489173D02*
D03*
X1487205D02*
D03*
X1485236D02*
D03*
X1483268D02*
D03*
X1481299D02*
D03*
X1479331D02*
D03*
X1477362D02*
D03*
X1475394D02*
D03*
X1473425D02*
D03*
X1471457D02*
D03*
X1469488D02*
D03*
X1467520D02*
D03*
X1465551D02*
D03*
D89*
X98425Y956693D02*
D03*
X1547244Y15748D02*
D03*
X1456693Y933071D02*
D03*
X70866Y165354D02*
D03*
X1421260Y393701D02*
D03*
X748032Y358268D02*
D03*
X177165Y393701D02*
D03*
X1015748Y795276D02*
D03*
D90*
X1037795Y338583D02*
D03*
X1025197D02*
D03*
X76646Y25302D02*
D03*
X89245D02*
D03*
X1025197Y314961D02*
D03*
X1037795D02*
D03*
D91*
X964567Y354035D02*
D03*
Y346752D02*
D03*
X360987Y10925D02*
D03*
Y18209D02*
D03*
X1059055Y382185D02*
D03*
Y389469D02*
D03*
X1047244Y382185D02*
D03*
Y389469D02*
D03*
X1492126Y326476D02*
D03*
Y319193D02*
D03*
X1531496Y307382D02*
D03*
Y314665D02*
D03*
X1389764Y208957D02*
D03*
Y216240D02*
D03*
X1413386Y275886D02*
D03*
Y283169D02*
D03*
X1393701Y259547D02*
D03*
Y252264D02*
D03*
X964567Y417028D02*
D03*
Y409744D02*
D03*
Y401279D02*
D03*
Y393996D02*
D03*
Y385531D02*
D03*
Y378248D02*
D03*
Y369783D02*
D03*
Y362500D02*
D03*
D92*
X1397638Y306496D02*
D03*
Y299803D02*
D03*
X259842Y15157D02*
D03*
Y8465D02*
D03*
X190728Y51772D02*
D03*
Y45079D02*
D03*
X232283Y122638D02*
D03*
Y129331D02*
D03*
X244094Y117520D02*
D03*
Y110827D02*
D03*
X128622Y32283D02*
D03*
Y25591D02*
D03*
X568228Y423425D02*
D03*
Y416732D02*
D03*
X544606Y423425D02*
D03*
Y416732D02*
D03*
X1409449Y215945D02*
D03*
Y209252D02*
D03*
X1433071Y282874D02*
D03*
Y276181D02*
D03*
X1511811Y192323D02*
D03*
Y185630D02*
D03*
X1492126Y192323D02*
D03*
Y185630D02*
D03*
X1511811Y215945D02*
D03*
Y209252D02*
D03*
X1492126Y215945D02*
D03*
Y209252D02*
D03*
X1444882Y306496D02*
D03*
Y299803D02*
D03*
X1421260Y306496D02*
D03*
Y299803D02*
D03*
D93*
X31559Y358268D02*
D03*
X23559D02*
D03*
X275654Y74803D02*
D03*
X267653D02*
D03*
X122110Y118110D02*
D03*
X114110D02*
D03*
X275654Y55118D02*
D03*
X267653D02*
D03*
X275654Y35433D02*
D03*
X267653D02*
D03*
X169354Y118110D02*
D03*
X161354D02*
D03*
X220535Y149606D02*
D03*
X212535D02*
D03*
X228284Y178900D02*
D03*
X236283D02*
D03*
X108874Y52559D02*
D03*
X116874D02*
D03*
X236283Y161417D02*
D03*
X228284D02*
D03*
X602299Y901575D02*
D03*
X610299D02*
D03*
X535370D02*
D03*
X543370D02*
D03*
X1480378Y216535D02*
D03*
X1472378D02*
D03*
X39433Y905512D02*
D03*
X31433D02*
D03*
X39433Y842520D02*
D03*
X31433D02*
D03*
X39433Y874016D02*
D03*
X31433D02*
D03*
X55181Y811024D02*
D03*
X47181D02*
D03*
X66992Y779528D02*
D03*
X58992D02*
D03*
X47307Y409449D02*
D03*
X39307D02*
D03*
D94*
X66339Y27559D02*
D03*
X59646D02*
D03*
X1500591Y318898D02*
D03*
X1507283D02*
D03*
X1467913Y389764D02*
D03*
X1461220D02*
D03*
X1471850Y326772D02*
D03*
X1465158D02*
D03*
X1471850Y208661D02*
D03*
X1465158D02*
D03*
X1479724Y374016D02*
D03*
X1473032D02*
D03*
D95*
X295571Y90551D02*
D03*
X302854D02*
D03*
X1449114Y374016D02*
D03*
X1456398D02*
D03*
X1382185Y236221D02*
D03*
X1389468D02*
D03*
X1507579Y295276D02*
D03*
X1500295D02*
D03*
X1449114Y342520D02*
D03*
X1456398D02*
D03*
X1046949Y456693D02*
D03*
X1039665D02*
D03*
X1031201D02*
D03*
X1023917D02*
D03*
X1015453D02*
D03*
X1008169D02*
D03*
X999705D02*
D03*
X992421D02*
D03*
X983957D02*
D03*
X976673D02*
D03*
D96*
X279704Y5512D02*
D03*
Y18110D02*
D03*
X173228Y44882D02*
D03*
Y57480D02*
D03*
X1051181Y348819D02*
D03*
Y336221D02*
D03*
D97*
X141732Y149453D02*
D03*
Y141453D02*
D03*
X342520Y15811D02*
D03*
Y7811D02*
D03*
X188976Y149669D02*
D03*
Y141669D02*
D03*
X219853Y124197D02*
D03*
Y132197D02*
D03*
X263779Y129984D02*
D03*
Y121984D02*
D03*
Y106362D02*
D03*
Y98362D02*
D03*
X1531496Y70929D02*
D03*
Y62929D02*
D03*
X1464567Y311087D02*
D03*
Y303087D02*
D03*
X1474879Y301516D02*
D03*
Y293516D02*
D03*
D98*
X588779Y886890D02*
D03*
X623819D02*
D03*
X588779Y876890D02*
D03*
X623819D02*
D03*
X521850Y886890D02*
D03*
X556890D02*
D03*
X521850Y876890D02*
D03*
X556890D02*
D03*
D99*
X207134Y53917D02*
D03*
X214614D02*
D03*
Y44035D02*
D03*
X210874D02*
D03*
X207134D02*
D03*
D100*
X192913Y78740D02*
D03*
X35118Y732913D02*
D03*
X25118D02*
D03*
X35118Y722913D02*
D03*
X25118D02*
D03*
X35118Y712913D02*
D03*
X25118D02*
D03*
X35118Y702913D02*
D03*
X25118D02*
D03*
X35118Y692913D02*
D03*
X25118D02*
D03*
X35118Y682913D02*
D03*
X25118D02*
D03*
X35118Y672913D02*
D03*
X25118D02*
D03*
X35118Y662913D02*
D03*
X25118D02*
D03*
X35118Y652913D02*
D03*
X25118D02*
D03*
X35118Y642913D02*
D03*
X25118D02*
D03*
X35118Y632913D02*
D03*
X25118D02*
D03*
X35118Y622913D02*
D03*
X25118D02*
D03*
X35118Y612913D02*
D03*
X25118D02*
D03*
X35118Y602913D02*
D03*
X25118D02*
D03*
X35118Y592913D02*
D03*
X25118D02*
D03*
X35118Y582913D02*
D03*
X25118D02*
D03*
X35118Y572913D02*
D03*
X25118Y573012D02*
D03*
X35118Y562913D02*
D03*
X25118D02*
D03*
X35118Y552913D02*
D03*
X25118D02*
D03*
X35118Y542913D02*
D03*
X25118D02*
D03*
X35118Y532913D02*
D03*
X25118D02*
D03*
X35118Y522913D02*
D03*
X25118D02*
D03*
X35118Y512913D02*
D03*
X25118D02*
D03*
X35118Y502913D02*
D03*
X25118D02*
D03*
X35118Y492913D02*
D03*
X25118Y742913D02*
D03*
X35118D02*
D03*
X55118D02*
D03*
X45118D02*
D03*
X55118Y492913D02*
D03*
X45118Y502913D02*
D03*
X55118D02*
D03*
X45118Y512913D02*
D03*
X55118D02*
D03*
X45118Y522913D02*
D03*
X55118D02*
D03*
X45098Y532913D02*
D03*
X55118D02*
D03*
X45098Y542913D02*
D03*
X55118D02*
D03*
X45118Y552913D02*
D03*
X55118D02*
D03*
X45118Y562913D02*
D03*
X55118D02*
D03*
X45118Y573012D02*
D03*
X55118Y572913D02*
D03*
X45118Y582913D02*
D03*
X55118D02*
D03*
X45118Y592913D02*
D03*
X55118D02*
D03*
X45118Y602913D02*
D03*
X55118D02*
D03*
X45118Y612913D02*
D03*
X55118D02*
D03*
X45118Y622913D02*
D03*
X55118D02*
D03*
X45118Y632913D02*
D03*
X55118D02*
D03*
X45118Y642913D02*
D03*
X55118D02*
D03*
X45118Y652913D02*
D03*
X55118D02*
D03*
X45118Y662913D02*
D03*
X55118D02*
D03*
X45118Y672913D02*
D03*
X55118D02*
D03*
X45118Y682913D02*
D03*
X55118D02*
D03*
X45118Y692913D02*
D03*
X55118D02*
D03*
X45118Y702913D02*
D03*
X55118D02*
D03*
X45118Y712913D02*
D03*
X55118D02*
D03*
X45118Y722913D02*
D03*
X55118D02*
D03*
X45118Y732913D02*
D03*
X55118D02*
D03*
X1521123Y733130D02*
D03*
X1531123D02*
D03*
X1521123Y723130D02*
D03*
X1531123D02*
D03*
X1521123Y713130D02*
D03*
X1531123D02*
D03*
X1521123Y703129D02*
D03*
X1531123D02*
D03*
X1521123Y693129D02*
D03*
X1531123D02*
D03*
X1521123Y683130D02*
D03*
X1531123D02*
D03*
X1521123Y673130D02*
D03*
X1531123D02*
D03*
X1521123Y663130D02*
D03*
X1531123D02*
D03*
X1521123Y653129D02*
D03*
X1531123D02*
D03*
X1521123Y643129D02*
D03*
X1531123D02*
D03*
X1521123Y633130D02*
D03*
X1531123D02*
D03*
X1521123Y623130D02*
D03*
X1531123D02*
D03*
X1521123Y613130D02*
D03*
X1531123D02*
D03*
X1521123Y603129D02*
D03*
X1531123D02*
D03*
X1521123Y593129D02*
D03*
X1531123D02*
D03*
X1521123Y583130D02*
D03*
X1531123D02*
D03*
X1521123Y573130D02*
D03*
X1531123Y573228D02*
D03*
X1521123Y563130D02*
D03*
X1531123D02*
D03*
X1521123Y553129D02*
D03*
X1531123D02*
D03*
X1521123Y543129D02*
D03*
X1531143D02*
D03*
X1521123Y533130D02*
D03*
X1531143D02*
D03*
X1521123Y523130D02*
D03*
X1531123D02*
D03*
X1521123Y513130D02*
D03*
X1531123D02*
D03*
X1521123Y503129D02*
D03*
X1531123D02*
D03*
X1521123Y493129D02*
D03*
X1531123Y743129D02*
D03*
X1521123D02*
D03*
X1541123D02*
D03*
X1551123D02*
D03*
X1541123Y493129D02*
D03*
X1551123Y503129D02*
D03*
X1541123D02*
D03*
X1551123Y513130D02*
D03*
X1541123D02*
D03*
X1551123Y523130D02*
D03*
X1541123D02*
D03*
X1551123Y533130D02*
D03*
X1541123D02*
D03*
X1551123Y543129D02*
D03*
X1541123D02*
D03*
X1551123Y553129D02*
D03*
X1541123D02*
D03*
X1551123Y563130D02*
D03*
X1541123D02*
D03*
X1551123Y573228D02*
D03*
X1541123Y573130D02*
D03*
X1551123Y583130D02*
D03*
X1541123D02*
D03*
X1551123Y593129D02*
D03*
X1541123D02*
D03*
X1551123Y603129D02*
D03*
X1541123D02*
D03*
X1551123Y613130D02*
D03*
X1541123D02*
D03*
X1551123Y623130D02*
D03*
X1541123D02*
D03*
X1551123Y633130D02*
D03*
X1541123D02*
D03*
X1551123Y643129D02*
D03*
X1541123D02*
D03*
X1551123Y653129D02*
D03*
X1541123D02*
D03*
X1551123Y663130D02*
D03*
X1541123D02*
D03*
X1551123Y673130D02*
D03*
X1541123D02*
D03*
X1551123Y683130D02*
D03*
X1541123D02*
D03*
X1551123Y693129D02*
D03*
X1541123D02*
D03*
X1551123Y703129D02*
D03*
X1541123D02*
D03*
X1551123Y713130D02*
D03*
X1541123D02*
D03*
X1551123Y723130D02*
D03*
X1541123D02*
D03*
X1551123Y733130D02*
D03*
X1541123D02*
D03*
X1551181Y243779D02*
D03*
Y253780D02*
D03*
Y263779D02*
D03*
Y273780D02*
D03*
Y283780D02*
D03*
X1561181Y233780D02*
D03*
Y243779D02*
D03*
Y253780D02*
D03*
Y263779D02*
D03*
Y273780D02*
D03*
Y283780D02*
D03*
X672598Y928819D02*
D03*
Y938819D02*
D03*
X682598Y928819D02*
D03*
Y938819D02*
D03*
X692598Y928819D02*
D03*
Y938819D02*
D03*
X702598Y928819D02*
D03*
Y938819D02*
D03*
X712598Y928819D02*
D03*
Y938819D02*
D03*
X722598Y928819D02*
D03*
Y938819D02*
D03*
X732598Y928819D02*
D03*
Y938819D02*
D03*
X742598Y928819D02*
D03*
Y938819D02*
D03*
X752598Y928819D02*
D03*
Y938819D02*
D03*
X762598Y928819D02*
D03*
Y938819D02*
D03*
X772598Y928819D02*
D03*
Y938819D02*
D03*
X782598Y928819D02*
D03*
Y938819D02*
D03*
X792598Y928819D02*
D03*
Y938819D02*
D03*
X802598Y928819D02*
D03*
Y938819D02*
D03*
X812598Y928819D02*
D03*
Y938819D02*
D03*
X822598Y928819D02*
D03*
Y938819D02*
D03*
X832598Y928819D02*
D03*
X832500Y938819D02*
D03*
X842598Y928819D02*
D03*
Y938819D02*
D03*
X852598Y928819D02*
D03*
Y938819D02*
D03*
X862598Y928819D02*
D03*
Y938839D02*
D03*
X872598Y928819D02*
D03*
Y938839D02*
D03*
X882598Y928819D02*
D03*
Y938819D02*
D03*
X892598Y928819D02*
D03*
Y938819D02*
D03*
X902598Y928819D02*
D03*
Y938819D02*
D03*
X912598Y928819D02*
D03*
X662598Y938819D02*
D03*
Y928819D02*
D03*
Y948819D02*
D03*
Y958819D02*
D03*
X912598Y948819D02*
D03*
X902598Y958819D02*
D03*
Y948819D02*
D03*
X892598Y958819D02*
D03*
Y948819D02*
D03*
X882598Y958819D02*
D03*
Y948819D02*
D03*
X872598Y958819D02*
D03*
Y948819D02*
D03*
X862598Y958819D02*
D03*
Y948819D02*
D03*
X852598Y958819D02*
D03*
Y948819D02*
D03*
X842598Y958819D02*
D03*
Y948819D02*
D03*
X832500Y958819D02*
D03*
X832598Y948819D02*
D03*
X822598Y958819D02*
D03*
Y948819D02*
D03*
X812598Y958819D02*
D03*
Y948819D02*
D03*
X802598Y958819D02*
D03*
Y948819D02*
D03*
X792598Y958819D02*
D03*
Y948819D02*
D03*
X782598Y958819D02*
D03*
Y948819D02*
D03*
X772598Y958819D02*
D03*
Y948819D02*
D03*
X762598Y958819D02*
D03*
Y948819D02*
D03*
X752598Y958819D02*
D03*
Y948819D02*
D03*
X742598Y958819D02*
D03*
Y948819D02*
D03*
X732598Y958819D02*
D03*
Y948819D02*
D03*
X722598Y958819D02*
D03*
Y948819D02*
D03*
X712598Y958819D02*
D03*
Y948819D02*
D03*
X702598Y958819D02*
D03*
Y948819D02*
D03*
X692598Y958819D02*
D03*
Y948819D02*
D03*
X682598Y958819D02*
D03*
Y948819D02*
D03*
X672598Y958819D02*
D03*
Y948819D02*
D03*
X1092047Y928819D02*
D03*
Y938819D02*
D03*
X1102047Y928819D02*
D03*
Y938819D02*
D03*
X1112047Y928819D02*
D03*
Y938819D02*
D03*
X1122047Y928819D02*
D03*
Y938819D02*
D03*
X1132047Y928819D02*
D03*
Y938819D02*
D03*
X1142047Y928819D02*
D03*
Y938819D02*
D03*
X1152047Y928819D02*
D03*
Y938819D02*
D03*
X1162047Y928819D02*
D03*
Y938819D02*
D03*
X1172047Y928819D02*
D03*
Y938819D02*
D03*
X1182047Y928819D02*
D03*
Y938819D02*
D03*
X1192047Y928819D02*
D03*
Y938819D02*
D03*
X1202047Y928819D02*
D03*
Y938819D02*
D03*
X1212047Y928819D02*
D03*
Y938819D02*
D03*
X1222047Y928819D02*
D03*
Y938819D02*
D03*
X1232047Y928819D02*
D03*
Y938819D02*
D03*
X1242047Y928819D02*
D03*
Y938819D02*
D03*
X1252047Y928819D02*
D03*
X1251949Y938819D02*
D03*
X1262047Y928819D02*
D03*
Y938819D02*
D03*
X1272047Y928819D02*
D03*
Y938819D02*
D03*
X1282047Y928819D02*
D03*
Y938839D02*
D03*
X1292047Y928819D02*
D03*
Y938839D02*
D03*
X1302047Y928819D02*
D03*
Y938819D02*
D03*
X1312047Y928819D02*
D03*
Y938819D02*
D03*
X1322047Y928819D02*
D03*
Y938819D02*
D03*
X1332047Y928819D02*
D03*
X1082047Y938819D02*
D03*
Y928819D02*
D03*
Y948819D02*
D03*
Y958819D02*
D03*
X1332047Y948819D02*
D03*
X1322047Y958819D02*
D03*
Y948819D02*
D03*
X1312047Y958819D02*
D03*
Y948819D02*
D03*
X1302047Y958819D02*
D03*
Y948819D02*
D03*
X1292047Y958819D02*
D03*
Y948819D02*
D03*
X1282047Y958819D02*
D03*
Y948819D02*
D03*
X1272047Y958819D02*
D03*
Y948819D02*
D03*
X1262047Y958819D02*
D03*
Y948819D02*
D03*
X1251949Y958819D02*
D03*
X1252047Y948819D02*
D03*
X1242047Y958819D02*
D03*
Y948819D02*
D03*
X1232047Y958819D02*
D03*
Y948819D02*
D03*
X1222047Y958819D02*
D03*
Y948819D02*
D03*
X1212047Y958819D02*
D03*
Y948819D02*
D03*
X1202047Y958819D02*
D03*
Y948819D02*
D03*
X1192047Y958819D02*
D03*
Y948819D02*
D03*
X1182047Y958819D02*
D03*
Y948819D02*
D03*
X1172047Y958819D02*
D03*
Y948819D02*
D03*
X1162047Y958819D02*
D03*
Y948819D02*
D03*
X1152047Y958819D02*
D03*
Y948819D02*
D03*
X1142047Y958819D02*
D03*
Y948819D02*
D03*
X1132047Y958819D02*
D03*
Y948819D02*
D03*
X1122047Y958819D02*
D03*
Y948819D02*
D03*
X1112047Y958819D02*
D03*
Y948819D02*
D03*
X1102047Y958819D02*
D03*
Y948819D02*
D03*
X1092047Y958819D02*
D03*
Y948819D02*
D03*
X1092159Y26942D02*
D03*
Y36942D02*
D03*
X1102159Y26942D02*
D03*
Y36942D02*
D03*
X1112159Y26942D02*
D03*
Y36942D02*
D03*
X1122159Y26942D02*
D03*
Y36942D02*
D03*
X1132159Y26942D02*
D03*
Y36942D02*
D03*
X1142159Y26942D02*
D03*
Y36942D02*
D03*
X1152159Y26942D02*
D03*
Y36942D02*
D03*
X1162159Y26942D02*
D03*
Y36942D02*
D03*
X1172159Y26942D02*
D03*
Y36942D02*
D03*
X1182159Y26942D02*
D03*
Y36942D02*
D03*
X1192159Y26942D02*
D03*
Y36942D02*
D03*
X1202159Y26942D02*
D03*
Y36942D02*
D03*
X1212159Y26942D02*
D03*
Y36942D02*
D03*
X1222159Y26942D02*
D03*
Y36942D02*
D03*
X1232159Y26942D02*
D03*
Y36942D02*
D03*
X1242159Y26942D02*
D03*
Y36942D02*
D03*
X1252159Y26942D02*
D03*
X1252060Y36942D02*
D03*
X1262159Y26942D02*
D03*
Y36942D02*
D03*
X1272159Y26942D02*
D03*
Y36942D02*
D03*
X1282159Y26942D02*
D03*
Y36961D02*
D03*
X1292159Y26942D02*
D03*
Y36961D02*
D03*
X1302159Y26942D02*
D03*
Y36942D02*
D03*
X1312159Y26942D02*
D03*
Y36942D02*
D03*
X1322159Y26942D02*
D03*
Y36942D02*
D03*
X1332159Y26942D02*
D03*
X1082159Y36942D02*
D03*
Y26942D02*
D03*
Y46942D02*
D03*
Y56942D02*
D03*
X1332159Y46942D02*
D03*
X1322159Y56942D02*
D03*
Y46942D02*
D03*
X1312159Y56942D02*
D03*
Y46942D02*
D03*
X1302159Y56942D02*
D03*
Y46942D02*
D03*
X1292159Y56942D02*
D03*
Y46942D02*
D03*
X1282159Y56942D02*
D03*
Y46942D02*
D03*
X1272159Y56942D02*
D03*
Y46942D02*
D03*
X1262159Y56942D02*
D03*
Y46942D02*
D03*
X1252060Y56942D02*
D03*
X1252159Y46942D02*
D03*
X1242159Y56942D02*
D03*
Y46942D02*
D03*
X1232159Y56942D02*
D03*
Y46942D02*
D03*
X1222159Y56942D02*
D03*
Y46942D02*
D03*
X1212159Y56942D02*
D03*
Y46942D02*
D03*
X1202159Y56942D02*
D03*
Y46942D02*
D03*
X1192159Y56942D02*
D03*
Y46942D02*
D03*
X1182159Y56942D02*
D03*
Y46942D02*
D03*
X1172159Y56942D02*
D03*
Y46942D02*
D03*
X1162159Y56942D02*
D03*
Y46942D02*
D03*
X1152159Y56942D02*
D03*
Y46942D02*
D03*
X1142159Y56942D02*
D03*
Y46942D02*
D03*
X1132159Y56942D02*
D03*
Y46942D02*
D03*
X1122159Y56942D02*
D03*
Y46942D02*
D03*
X1112159Y56942D02*
D03*
Y46942D02*
D03*
X1102159Y56942D02*
D03*
Y46942D02*
D03*
X1092159Y56942D02*
D03*
Y46942D02*
D03*
X254016Y928819D02*
D03*
Y938819D02*
D03*
X264016Y928819D02*
D03*
Y938819D02*
D03*
X274016Y928819D02*
D03*
Y938819D02*
D03*
X284016Y928819D02*
D03*
Y938819D02*
D03*
X294016Y928819D02*
D03*
Y938819D02*
D03*
X304016Y928819D02*
D03*
Y938819D02*
D03*
X314016Y928819D02*
D03*
Y938819D02*
D03*
X324016Y928819D02*
D03*
Y938819D02*
D03*
X334016Y928819D02*
D03*
Y938819D02*
D03*
X344016Y928819D02*
D03*
Y938819D02*
D03*
X354016Y928819D02*
D03*
Y938819D02*
D03*
X364016Y928819D02*
D03*
Y938819D02*
D03*
X374016Y928819D02*
D03*
Y938819D02*
D03*
X384016Y928819D02*
D03*
Y938819D02*
D03*
X394016Y928819D02*
D03*
Y938819D02*
D03*
X404016Y928819D02*
D03*
Y938819D02*
D03*
X414016Y928819D02*
D03*
X413917Y938819D02*
D03*
X424016Y928819D02*
D03*
Y938819D02*
D03*
X434016Y928819D02*
D03*
Y938819D02*
D03*
X444016Y928819D02*
D03*
Y938839D02*
D03*
X454016Y928819D02*
D03*
Y938839D02*
D03*
X464016Y928819D02*
D03*
Y938819D02*
D03*
X474016Y928819D02*
D03*
Y938819D02*
D03*
X484016Y928819D02*
D03*
Y938819D02*
D03*
X494016Y928819D02*
D03*
X244016Y938819D02*
D03*
Y928819D02*
D03*
Y948819D02*
D03*
Y958819D02*
D03*
X494016Y948819D02*
D03*
X484016Y958819D02*
D03*
Y948819D02*
D03*
X474016Y958819D02*
D03*
Y948819D02*
D03*
X464016Y958819D02*
D03*
Y948819D02*
D03*
X454016Y958819D02*
D03*
Y948819D02*
D03*
X444016Y958819D02*
D03*
Y948819D02*
D03*
X434016Y958819D02*
D03*
Y948819D02*
D03*
X424016Y958819D02*
D03*
Y948819D02*
D03*
X413917Y958819D02*
D03*
X414016Y948819D02*
D03*
X404016Y958819D02*
D03*
Y948819D02*
D03*
X394016Y958819D02*
D03*
Y948819D02*
D03*
X384016Y958819D02*
D03*
Y948819D02*
D03*
X374016Y958819D02*
D03*
Y948819D02*
D03*
X364016Y958819D02*
D03*
Y948819D02*
D03*
X354016Y958819D02*
D03*
Y948819D02*
D03*
X344016Y958819D02*
D03*
Y948819D02*
D03*
X334016Y958819D02*
D03*
Y948819D02*
D03*
X324016Y958819D02*
D03*
Y948819D02*
D03*
X314016Y958819D02*
D03*
Y948819D02*
D03*
X304016Y958819D02*
D03*
Y948819D02*
D03*
X294016Y958819D02*
D03*
Y948819D02*
D03*
X284016Y958819D02*
D03*
Y948819D02*
D03*
X274016Y958819D02*
D03*
Y948819D02*
D03*
X264016Y958819D02*
D03*
Y948819D02*
D03*
X254016Y958819D02*
D03*
Y948819D02*
D03*
X102362Y149606D02*
D03*
X188976Y173228D02*
D03*
X200787Y122047D02*
D03*
X74803Y137795D02*
D03*
X1500000Y153543D02*
D03*
X299213Y118110D02*
D03*
X1523622Y251717D02*
D03*
X1531496Y366142D02*
D03*
X232535Y385827D02*
D03*
X190782Y465737D02*
D03*
X452756Y417323D02*
D03*
X874016Y55118D02*
D03*
X1500000Y795276D02*
D03*
X515748Y389764D02*
D03*
X181102Y224410D02*
D03*
D101*
X318898Y49055D02*
D03*
Y39055D02*
D03*
X308898Y49055D02*
D03*
Y39055D02*
D03*
X318898Y59055D02*
D03*
D102*
X308898D02*
D03*
D103*
X48207Y237008D02*
D03*
Y224410D02*
D03*
X48185Y292913D02*
D03*
Y280315D02*
D03*
D104*
X48207Y211811D02*
D03*
X48185Y267717D02*
D03*
D105*
X1482442Y840079D02*
D03*
X72677Y106614D02*
D03*
X992126Y171417D02*
D03*
D106*
X1472442Y840079D02*
D03*
X1482442Y850079D02*
D03*
X1472442D02*
D03*
X1482442Y860079D02*
D03*
X1472442D02*
D03*
X1482442Y870079D02*
D03*
X1472442D02*
D03*
X1482442Y880079D02*
D03*
X1472442D02*
D03*
X1482442Y890079D02*
D03*
X1472442D02*
D03*
X1482442Y900079D02*
D03*
X1472442D02*
D03*
X82677Y106614D02*
D03*
X72677Y96614D02*
D03*
X82677D02*
D03*
X72677Y86614D02*
D03*
X82677D02*
D03*
X72677Y76614D02*
D03*
X82677D02*
D03*
X72677Y66614D02*
D03*
X82677D02*
D03*
X72677Y56614D02*
D03*
X82677D02*
D03*
X72677Y46614D02*
D03*
X82677D02*
D03*
X845273Y25708D02*
D03*
X835273Y35708D02*
D03*
Y25708D02*
D03*
X825272Y35708D02*
D03*
Y25708D02*
D03*
X815273Y35708D02*
D03*
Y25708D02*
D03*
X805272Y35708D02*
D03*
Y25708D02*
D03*
X795272Y35708D02*
D03*
Y25708D02*
D03*
X785273Y35708D02*
D03*
Y25708D02*
D03*
X1002126Y171417D02*
D03*
X992126Y161417D02*
D03*
X1002126D02*
D03*
X992126Y151417D02*
D03*
X1002126D02*
D03*
X992126Y141417D02*
D03*
X1002126D02*
D03*
X992126Y131417D02*
D03*
X1002126D02*
D03*
X992126Y121417D02*
D03*
X1002126D02*
D03*
X992126Y111417D02*
D03*
X1002126D02*
D03*
D107*
X976378Y346457D02*
D03*
Y354331D02*
D03*
Y362205D02*
D03*
Y370079D02*
D03*
Y377953D02*
D03*
Y385827D02*
D03*
Y393701D02*
D03*
Y401575D02*
D03*
Y409449D02*
D03*
X1039370Y444882D02*
D03*
X1031496D02*
D03*
X1023622D02*
D03*
X1015748D02*
D03*
X1007874D02*
D03*
X1000000D02*
D03*
X992126D02*
D03*
X984252D02*
D03*
X976378D02*
D03*
D108*
Y417323D02*
D03*
D109*
X1046370Y866112D02*
D03*
X1066055Y866151D02*
D03*
X492908Y456227D02*
D03*
X492869Y475913D02*
D03*
X1366645Y211819D02*
D03*
X1346960Y211779D02*
D03*
D110*
X998937Y19685D02*
D03*
X177326Y306981D02*
D03*
D111*
X1008937Y19685D02*
D03*
X167326Y306981D02*
D03*
D112*
X1003937Y295276D02*
D03*
D113*
X55665Y472866D02*
D03*
X55610Y762959D02*
D03*
X1520631Y763175D02*
D03*
X1520576Y473082D02*
D03*
X66929Y960630D02*
D03*
X1539370Y911516D02*
D03*
Y836516D02*
D03*
X642553Y928327D02*
D03*
X932646Y928272D02*
D03*
X1062002Y928327D02*
D03*
X1352094Y928272D02*
D03*
X1062113Y26450D02*
D03*
X1352206Y26395D02*
D03*
X223970Y928327D02*
D03*
X514063Y928272D02*
D03*
X1523622Y23622D02*
D03*
X1488189Y940945D02*
D03*
X43307Y169291D02*
D03*
X1425197Y425197D02*
D03*
X751968Y389764D02*
D03*
X149606Y397638D02*
D03*
X1019685Y826772D02*
D03*
X31496Y116240D02*
D03*
Y41240D02*
D03*
X663287Y31496D02*
D03*
X738287D02*
D03*
D114*
X505913Y319882D02*
D03*
Y144882D02*
D03*
D115*
X679913Y319882D02*
D03*
Y144882D02*
D03*
D116*
X777913Y329832D02*
D03*
X407913Y134832D02*
D03*
Y329832D02*
D03*
X777913Y134832D02*
D03*
D117*
X1551181Y59842D02*
D03*
Y40157D02*
D03*
D118*
X1561811Y36220D02*
D03*
Y63779D02*
D03*
D119*
X488189Y426181D02*
D03*
X522453Y426602D02*
D03*
X216535Y422244D02*
D03*
Y466535D02*
D03*
D120*
X488189Y416339D02*
D03*
X144685Y212598D02*
D03*
X522453Y416760D02*
D03*
X216535Y412402D02*
D03*
Y456693D02*
D03*
D121*
X912598Y938839D02*
D03*
Y958819D02*
D03*
X1332047Y938839D02*
D03*
Y958819D02*
D03*
X1332159Y36961D02*
D03*
Y56942D02*
D03*
X494016Y938839D02*
D03*
Y958819D02*
D03*
D122*
X845273Y35708D02*
D03*
D123*
X1047244Y444882D02*
D03*
D124*
X154528Y212598D02*
D03*
M02*
