M48
;Layer_Color=9474304
;FILE_FORMAT=2:5
INCH,LZ
;TYPE=PLATED
T1F00S00C0.01181
T2F00S00C0.01772
T5F00S00C0.02799
T6F00S00C0.03228
T7F00S00C0.03504
T8F00S00C0.03543
T9F00S00C0.03937
T10F00S00C0.04016
T11F00S00C0.04213
T12F00S00C0.12500
T13F00S00C0.12598
T14F00S00C0.17717
;TYPE=NON_PLATED
T15F00S00C0.03201
T16F00S00C0.04799
%
T01
X0059055Y0019685
X0089245Y0017723
X0112874Y0017205
X0128622Y0017717
X0145412Y0062735
X0093519
X0141732Y0133874
X0188976Y0134153
X0212535Y0142028
X0227638Y0149606
X024377Y013643
X0251969Y0141732
X0255906Y0129921
X0238185Y0128434
X0232283Y0114764
X0256201Y0098362
X0252264Y0008169
X0272126
X0232067Y001624
X0220472Y003937
X0210874Y0036457
X0190728Y0034547
X0173228Y0039961
X0295276Y0043307
X0350098Y0007811
X0368566Y0008268
X0531496Y014197
X0537795Y0141919
X0537795Y0147845
X0547244
X0547244Y0141919
X0556693
X0556693Y0147845
X0566142
X0566142Y0141919
X057559
X0575591Y0147845
X0585039
X0585039Y0141919
X0594488
X0594488Y0147845
X0603937Y0147794
X0607087
X0607086Y014197
X0603937
X0617155Y0142201
X0617197Y0147763
X0614547Y0068313
X0629547Y007132
X0653022Y0115364
X0660138Y0117565
X065748Y0141919
X065748Y0147845
X0648032
X0648031Y0141919
X0638583Y0144929
X0634598
X0635433Y0147845
X0625984
X0625984Y0141919
X0665354Y0145669
X0704065Y010436
X0699508Y0077953
X0694951Y0074803
X0848691Y008324
X0856368Y0085441
X0865482Y0087642
X08706Y0089842
X0888061Y0092043
X0895738Y0094244
X0904852Y0096445
X090997Y0098646
X0927431Y0100846
X0935108Y0103047
X0944222Y0105248
X0958927Y010965
X0966604Y011185
X0969538Y0116252
X0972441Y0074803
X0978524Y0074612
X0996437Y0037795
X1017186Y0045374
X1070866Y0066929
X1086611Y0066904
X1096744Y0070579
X1097861Y0083241
X1110758Y0082512
X1112956Y0067069
X1116791Y0068241
X1123611Y0067855
X1126791Y0068241
X1133611Y0067855
X1136791Y0068241
X1143882Y0067678
X1146791Y0068241
X1156791
X1164633Y0067855
X1167292Y006833
X1192913Y0070866
X1210787
X1216698Y0068385
X1215236Y0066033
X1223614Y0067348
X1226163Y0068241
X1233629Y0067363
X1236183Y0068241
X1243442Y0067686
X1246085Y0068241
X1253688Y0067427
X1256266Y0068233
X1263611Y0067855
X1266791Y0068241
X1274711Y0066518
X1276791Y0068241
X1284433Y0067855
X1287098Y0068291
X1293611Y0067855
X1296881Y0068165
X1306791Y0068241
X1314625Y0067855
X1317288Y0068305
X1326458Y0068241
X1412402Y0036614
X1417323Y003937
X1422127
X1471457Y0036614
X1476378Y0047244
X1480315Y0043307
X1543307
X1543602Y0055118
X1542126Y0113189
Y0172244
X1540087Y0182087
X1535433Y0188976
X1525593Y0198964
X1521888Y019685
X1511811Y0201378
X1492126
X1492126Y019685
X1492126Y0177756
X1511811
X1492126Y0220472
X148132Y0231009
X1465551Y0230335
X1468504Y0244094
X1467725Y0248258
X1464559Y02505
X1465925Y0252953
X1474266Y0246408
X1492126Y0248031
X1496066Y0254471
X1492126Y0263779
X1496366Y0273969
X149311Y0277559
X1488108Y0276514
X1481299Y0277559
X1465551Y0274232
X1448819Y027559
X1453543Y0280315
X1450787Y0266732
X1447994Y0258144
X1450787Y0254921
X1433071Y023989
X1413386Y0248173
X1425492Y0275886
X142126Y0291929
X1444882
X1480485Y0297498
X1474879Y0305748
X1489173Y028935
X1515158Y0295276
X1531496Y0299803
X153937Y0307087
X1513894Y0273495
X1509823Y0274606
X1509842Y0249016
X1550535Y0210452
X1555118Y0212598
X1453051Y0208661
X1409449Y0201378
X1389764
X1397047Y0236221
X1386122Y0252264
X1405807Y0275886
X1397638Y0291929
X0983788Y0297917
X0963484
Y0307087
X0966604Y0283487
X0964045Y0280792
X0958927
X0971161
Y0181002
X0975641Y0178801
X0964045Y0183203
X0946781Y0187604
X0939665Y0189805
X0932549Y0192006
X0912529Y0194207
X0907411Y0196407
X0900295Y0198608
X0893179Y0200809
X0873159Y020301
X0868041Y0205211
X0860925Y0207412
X0853809Y0209612
X0826112Y0307205
X0816998Y030315
X0809321Y0295276
X0692392Y0211824
X0687274Y0214274
X0706624Y0185404
X0655581Y01744
X0647904Y01766
X0598051Y0216773
X0583051Y0212185
X0450197Y0263705
X0445079Y0265905
X0435965Y0268106
X0428288Y0270307
X0378474Y0272508
X0373356Y0274709
X0364242Y0276909
X0356565Y027911
X0339104Y0281311
X0333986Y0283512
X0324872Y0285713
X0317195Y0287913
X0299734Y0290114
X0294616Y0292315
X0285502Y0294516
X0277825Y0296716
X0260364Y0298971
X0255246Y0301118
X0246132Y0303319
X0238455Y030647
X0243862Y0161417
X0114672Y0393924
X0110236Y0393701
Y0441577
X0114672Y043929
X0126476Y0441577
X0129921Y043929
X0137795Y0441577
X0141732Y043929
X0149606Y0441577
X0153543Y043929
X0045394Y0445376
X0039606Y0439737
X0029646Y039253
X0023858Y038689
X0161417Y0441577
X0165354Y043929
X0177165Y0441577
X0181102Y043929
X0243012Y0435024
Y0446753
X0246132Y0460608
X0243573Y0463303
X0238455
X0251243Y0462748
X0255246Y0460608
X0260364
X0262923Y0463303
X0257805
X0266748Y0456874
X0277825Y0463303
X0282943
X0285502Y0460608
X0290059Y0463303
X0297175
X0302293
X0299734Y0460608
X0294616
X0306118Y0456874
X0302854Y0435024
X0299734Y0421282
X0294616
X0297175Y0418587
X0302293
X0290059
X0282943
X0277825
X0285502Y0421282
X0282382Y0435024
Y0446753
X0263484Y0435024
X0260364Y0421282
X0255246
X0257805Y0418587
X0262923
X0250689
X0243573
X0238455
X0246132Y0421282
X0250689Y0334646
X0257805Y0337695
X0262923Y0339896
X0282943Y0342096
X0290059Y0344297
X0297175Y0346498
X0302293Y0348699
X0243573Y0330709
X0322313Y03509
X0329429Y03531
X0336545Y0363432
X0341663Y0366956
X0361683Y0369157
X0368799Y0371357
X0375915Y0377294
X0381033Y0379495
X0401053Y0385705
X0411011Y0385081
X0416102Y0387683
X0420418Y0390605
X0420403Y0418587
X0415285
X0412726Y0421282
X0417844
X0408169Y0418587
X0401053
X0395935
X0403612Y0421282
X0400492Y0435024
Y0446753
X0403612Y0460608
X0401053Y0463303
X0395935
X0408169
X0415285
X0420403
X0417844Y0460608
X0412726
X0424228Y0456874
X0420965Y0435024
X0381594
X0378474Y0421282
X0373356
X0375915Y0418587
X0381033
X0368799
X0361683
X0356565
X0364242Y0421282
X0361122Y0435024
Y0446753
X0364242Y0460608
X0361683Y0463303
X0356565
X0368799
X0375915
X0381033
X0378474Y0460608
X0373356
X0384858Y0456874
X0345488
X0339104Y0460608
X0333986
X0336545Y0463303
X0341663
X0329429
X0322313
X0317195
X0324872Y0460608
X0321752Y0446753
Y0435024
X0324872Y0421282
X0322313Y0418587
X0317195
X0329429
X0336545
X0341663
X0339104Y0421282
X0333986
X0342224Y0435024
X0549236Y0413173
X0547244Y0322845
X0547244Y0316919
X0556693
X0556693Y0322845
X0566142
X0566142Y0316919
X057559
X0575591Y0322845
X0585747Y0322385
X0585619Y031706
X0594488Y0316919
X0594488Y0322845
X0603937Y0322794
X0607087
X0607086Y031697
X0603937
X0616793Y0317349
X0616741Y0322641
X0537795Y0322845
X0537795Y0316919
X0525197Y0322845
X0625984
X0625984Y0316919
X0632821Y0319935
X0635433Y0322845
X0638583Y0319935
X0650253Y0317337
X0650154Y0322835
X0663779Y0322845
X0660138Y0418587
X0653022
X0647904
X0655581Y0421282
X0652461Y0435024
X0651142Y0444302
X0652461Y0446753
X0658104Y0443339
X0661979Y0442281
X0672933Y0435024
X0691831
X0690655Y0444694
X0693466Y044448
X0690046Y0447381
X0684774Y0446071
X0688977Y046063
X0685039Y0468504
X0676197Y0456874
X065748Y046063
X0655379Y0468432
X0706624Y0463303
X0704065Y0460608
X0715567Y0456874
X0712303Y0435024
X0704065Y0421282
X0706624Y0418587
X0699508
X0692392
X0687274
X0694951Y0421282
X0762504Y0441618
X0763106Y0455299
X0758006Y0453809
X0809321Y0463303
X0814439
X0816998Y0460608
X0821555Y0463303
X0828671
X0833789
X083123Y0460608
X0826112
X08401Y0452244
X0853248Y04475
Y0435024
X0856368Y0421282
X0853809Y0418587
X0848691
X0860925
X0868041
X0873159
X08706Y0421282
X0865482
X087372Y0435024
X0892618
Y04475
X0895738Y0460608
X0893179Y0463303
X0888061
X0900295
X0907411
X0912529
X090997Y0460608
X0904852
X091884Y0452244
X0931988Y04475
Y0435024
X0935108Y0421282
X0932549Y0418587
X0927431
X0912529
X0907411
X0904852Y0421282
X090997
X0900295Y0418587
X0893179
X0888061
X0895738Y0421282
X0913091Y0435024
X0927429Y0463301
X0932273Y0463026
X0935108Y0460608
X087947Y0452244
X08706Y0460608
X0865482
X0868041Y0463303
X0873159
X0860925
X0853809
X0848691
X0856368Y0460608
X083435Y0435024
X083123Y0421282
X0826112
X0828671Y0418587
X0833789
X0821555
X0814439
X0809321
X0816998Y0421282
X0813878Y0435024
Y04475
X0814439Y0337446
X0821555Y0335945
X0828671Y0334444
X0833789Y0332943
X083123Y0314025
X0983957Y0320198
X1003937Y0329737
X1007874Y0332162
Y0350394
X1003937
X1Y0354331
X1002953Y0361377
X1008702Y0369094
Y0373031
Y0376969
Y0380906
Y0384842
X1010827Y0388936
X1014764
X1018701
X1022638
X1026575
X1030668Y0388779
Y0382874
Y0378937
Y0375
Y0371063
X1022638Y036697
X1024606Y0355471
X101724Y0350139
X1042167Y0369094
Y0373031
Y0376969
Y0380906
X1002953Y0394529
X0946781Y0418587
X0944222Y0421282
X0939665Y0418587
X0950596Y0423149
X0952461Y0457993
X0944222Y0460608
X0946781Y0463303
X0938802Y0462439
X1051181Y0330471
X1356288Y0466547
X1358268Y0464567
X1389764
X1387784Y0466547
X1453347Y0389764
X1449114Y0366437
X1472736
X1476181Y0341437
X1476378Y0327067
X1464567Y0318665
X1449114Y0334941
X1515158Y0318898
X1508557Y0498
X1508582Y050487
X1503491Y0507277
Y0517441
X1508557Y0515013
X1508582Y0524932
X1503491Y05273
Y0537277
X1508582Y0535014
X1508745Y0545018
X1503491Y0547277
Y0557277
X1508657Y0555037
X1508582Y056523
X1503491Y0567375
Y0577277
X1508607Y0575074
X1508591Y0585166
X1503491Y0587267
Y0597277
X1508574Y0595119
X1508593Y0604988
X1503491Y0607277
Y0617277
X1484188Y0495737
Y0492937
X1401575Y0483115
X1404375Y0480315
X1391744Y0495737
X1388944Y0492937
X1376816
X1374016Y0495737
X1360248Y0483115
X1357448Y0480315
X1330877Y0489949
X132324Y0497917
X1320241Y0500119
X131847Y0502553
X1316369Y0504654
X1312221Y0507061
X130993Y0509949
X1306226Y0514797
X1302221Y0517061
X1299968Y0519949
X1298408Y0522615
X1296308Y0524716
X1292221Y0527061
X1289924Y0529949
X128834Y0532913
X1286239Y0535555
X1282221Y0537856
X1279979Y0540349
X1278339Y0542668
X1276238Y0544951
X1272221Y0547061
X1269949Y0549949
X1268303Y055272
X1266202Y0555118
X1262221Y0557351
X1259777Y0559949
X125811Y0562785
X1256009Y0565302
X1252123Y0567758
X1249968Y0570213
X1248266Y0572757
X1246165Y0574858
X1242221Y0577061
X1239834Y0579949
X1238145Y0582607
X1236044Y058498
X1232201Y0587167
X1229831Y0589949
X1228221Y0592428
X122612Y0594903
X1222221Y0597061
X1219993Y0599949
X1218352Y0602433
X1215268Y0604772
X1212442Y0607023
X1208172Y061441
X1203526Y0617061
X1201162Y0619554
X096063Y0483115
X096343Y0480315
X0939808Y0492937
X0937008Y0495737
X0919302Y0489949
X0906487Y0498018
X0901122Y0500119
X0899021Y0502553
X0896921Y0504654
X0892772Y0507061
X0890481Y0509949
X0886777Y0514797
X0883161Y0517061
X088106Y0519949
X0878959Y0522615
X0876859Y0524716
X0873093Y0527061
X0870992Y0529949
X0868891Y0532913
X086679Y0535555
X0862772Y0537856
X0860991Y0540349
X085889Y0542684
X085679Y0544951
X0852772Y0547061
X08505Y0549949
X0848854Y055272
X0846754Y0555118
X0842772Y0557351
X0840328Y0559949
X0838661Y0562913
X0836561Y0565302
X0832674Y0567758
X0830519Y0570213
X0828817Y0572757
X0826717Y0574858
X0822772Y0577061
X0820385Y0579949
X0818696Y0582607
X0816595Y058498
X0812752Y0587167
X0810382Y0589949
X0808772Y0592428
X0806672Y0594903
X0802772Y0597061
X0800544Y0599949
X0798903Y0602433
X0795819Y0604772
X0792936Y0607061
X0788687Y061441
X0784077Y0617061
X0781713Y0619554
X056365Y0483115
X056249Y0480315
X0534863Y0492937
X0528103Y0495737
X0492846Y0489949
X0485209Y0497917
X0482209Y0500119
X0480439Y0502553
X0478338Y0504654
X047419Y0507061
X0471898Y0509949
X0468195Y0514797
X046419Y0517061
X0461936Y0519949
X0460377Y0522615
X0458276Y0524716
X045419Y0527061
X0451892Y0529949
X0450309Y0532913
X0448208Y0535555
X044419Y0537856
X0441948Y0540349
X0440308Y0542684
X0438207Y0544951
X043419Y0547061
X0431918Y0549949
X0430272Y055272
X0428171Y0555118
X042419Y0557351
X0421745Y0559949
X0420079Y0562913
X0417978Y0565302
X0414091Y0567758
X0411936Y0570213
X0410235Y0572757
X0408134Y0574858
X040419Y0577061
X0401802Y0579949
X0400113Y0582607
X0398013Y058498
X039417Y0587167
X0391799Y0589949
X039019Y0592428
X0388089Y0594903
X038419Y0597061
X0381961Y0599949
X0380321Y0602433
X0377236Y0604772
X0374353Y0607061
X036977Y061441
X0365495Y0617061
X0363131Y0619554
X007275Y0617061
Y0607061
X0067648Y0604772
X0067667Y0594903
X007275Y0597061
Y0587061
X006765Y058498
X0067634Y0574858
X007275Y0577061
Y0567403
X0067659Y0565014
X0067584Y0554821
X007275Y0557219
Y0547061
X0067609Y0544785
X0067659Y0534784
X007275Y0537656
Y0527061
X0067659Y0524716
X0067684Y0515364
X007275Y0517061
Y0507061
X0067659Y0504654
X0067684Y0497784
X0086641Y0494628
Y0491828
X0072835Y064812
X0071021Y0652719
X0067634Y0655108
X007275Y0657298
Y0667061
X0072725Y0677482
X0067634Y0675338
X0067827Y068503
X0072734Y0687228
X0072599Y0697438
X0067667Y0695128
X0067684Y0707784
Y0727784
Y0737784
Y0747784
X0233829Y0749756
X0239683Y0742913
X0244884Y0739325
X0249713Y0732297
X0255208Y0729619
X0260001Y0722913
X0262527Y0720236
X0269805Y0712598
X0275208Y0707784
X0278898Y0702913
X0281247Y0700787
X0283812Y0697438
X0287864Y0695128
X0290079Y0692913
X0291858Y0690787
X0294023Y0687228
X0297963Y068503
X0300079Y0682913
X0301746Y0680787
X0303973Y0677572
X0308004Y0675382
X0310105Y0673237
X0312038Y0671036
X031419Y0668525
X0321921Y0660225
X0324252Y0657298
X0327884Y065482
X033032Y0652719
X0332267Y0650619
X0334368Y064812
X0526159Y0759842
X0528959
X0557655
X0560455
X0583051Y0779528
X0588051
X0598051
X0614547
X0619547
X0629547
X0652412Y0749756
X0658265Y0742913
X0663467Y0739325
X0668296Y0732297
X0673791Y0729619
X0678583Y0722913
X0681109Y0720236
X0688388Y0712598
X0693791Y0707784
X0697481Y0702913
X0699829Y0700787
X0702395Y0697438
X0706447Y0695128
X0708661Y0692913
X0710441Y0690787
X0712605Y0687228
X0716545Y068503
X0718661Y0682913
X0720329Y0680787
X0722556Y0677572
X0726587Y0675382
X0728687Y0673237
X0730621Y0671036
X0732772Y0668525
X0740504Y0660225
X0742834Y0657298
X0746466Y065482
X0748903Y0652719
X075085Y0650619
X0752951Y064812
X0937008Y0755905
X0939808
X096063Y0755905
X096343
X1071861Y0749756
X1077714Y0742913
X1082916Y0739325
X1087744Y0732297
X109324Y0729619
X1098032Y0722913
X1100558Y0720236
X1107836Y0712598
X111324Y0707784
X111693Y0702913
X1119278Y0700787
X1121844Y0697438
X1125896Y0695128
X112811Y0692913
X1129889Y0690787
X1132054Y0687228
X1135994Y068503
X113811Y0682913
X1139778Y0680787
X1142005Y0677572
X1146035Y0675382
X1148136Y0673237
X115007Y0671036
X1152221Y0668525
X1159953Y0660225
X1162283Y0657298
X1165915Y065482
X1168352Y0652719
X1170299Y0650619
X11724Y064812
X1374016Y0755905
X1376816
X1401575
X1404375
X1508557Y0748
Y0738
X1510327Y0734736
X1508557Y0728
X1510327Y0725014
X1508557Y0718
X1510327Y0715885
X1508557Y0708
X1508574Y0695344
X1503642Y0697654
X1503507Y0687444
X1508414Y0685246
X1508607Y0675338
X1503516Y0677493
X1503491Y0667277
Y0657888
X1508607Y0655325
X1503349Y0647839
X1327177Y0916253
X1320306Y0916278
X1310163Y0916253
X1300245Y0916278
X1290176
X1280175Y0916328
X1270139Y0916353
X1259946Y0916278
X1250102Y0916303
X125606Y0906639
X1266158Y0906654
X1276158Y0906796
X1286158Y0906886
X1296158
X1306158
X1316158Y0906946
X1246158Y090671
X1236138Y0906675
X1226158Y0903835
X1230058Y091627
X1239981Y0916287
X1219205Y0915956
X1216322Y0919981
X1207463Y0910753
X1176337Y0911102
X1169852Y0916303
X116622Y0906603
X1156158Y0906282
X1145942Y0905966
X1135991Y0905964
X1125781Y0905748
X1129833Y091627
X1139931Y091611
X1149973Y0916303
X1117177Y0916253
X1112376Y0904261
X1109914Y0901047
X1104483Y0901265
X1099751Y0913516
X1097177Y0917124
X1086421Y091715
X1089084Y091305
X1075798Y0917633
X0907728Y0916253
X0900858Y0917074
X0890714Y0916253
X0880796Y0916278
X0870728
X0860727Y0916328
X0850691Y0916353
X0840498Y0916278
X0830654Y0916303
X0820532Y0916287
X0810609Y091627
X0799756Y0915956
X0796873Y0919981
X0788014Y0910753
X0806709Y0903835
X0816689Y0906675
X0826709Y090671
X0836611Y0906639
X0846709Y0906654
X0856709Y0906796
X0866709Y0906886
X0876709
X0886709
X0896709Y0906946
X0756888Y0911102
X0750403Y0916303
X0746771Y0906603
X0736709Y0906282
X0726493Y0905966
X0716542Y0905964
X0706332Y0905748
X0710384Y091627
X0720482Y091611
X0730524Y0916303
X0697728Y0916253
X0692927Y0904261
X0690465Y0901047
X0685034Y0901265
X0680302Y0913516
X0677728Y0917124
X0666972Y091715
X0669635Y091305
X0656349Y0917633
X0624547Y0787676
X0593051
X0489146Y0916253
X0482275Y0916278
X0472132Y0916253
X0478127Y0906946
X0468127Y0906886
X0458127
X0448127
X0438127Y0906796
X0428127Y0906654
X0418028Y0906639
X0408127Y090671
X0398107Y0906675
X0388127Y0903835
X0392026Y091627
X040195Y0916287
X0412071Y0916303
X0421915Y0916278
X0432108Y0916353
X0442144Y0916328
X0452145Y0916278
X0462213
X0381173Y0915956
X037829Y0919981
X0369432Y0910753
X0338305Y0911102
X0331821Y0916303
X0328188Y0906603
X0318127Y0906282
X030791Y0905966
X029796Y0905964
X028775Y0905748
X0291802Y091627
X03019Y091611
X0311941Y0916303
X0279293Y0916253
X0274344Y0904261
X0271883Y0901047
X0266451Y0901265
X026172Y0913516
X0259145Y0917124
X0248389Y091715
X0251053Y091305
X0237766Y0917633
X0185039Y0917323
X0161417Y0834272
X0165354Y0829272
X0177165Y0802776
X0181102Y0797776
X0153543Y0860768
X0149606Y0865768
X0141732Y0892264
X0137795Y0897264
X0129921Y092376
X0125984Y092876
X0055118Y092126
Y091626
X0035669Y092626
X0041457Y0932992
X0041457Y0900403
X0035669Y0894764
X0055118Y0884764
X0041457Y0868908
X0035669Y0863268
X0055118Y0853268
X0053268Y0837411
X004748Y0831772
X0066929Y0821772
X0065079Y0805915
X0059291Y0800276
X007874Y0795276
T02
X0471258Y0102362
X0149606Y0255906
X0070866Y0366142
X0011811Y0377953
X0029456Y0427237
X0090551Y0418989
X15Y0612826
Y0622826
X1210402Y0610626
X119811Y0623104
X119003
X0790953Y0610626
X0778661Y0623104
X0770582
X0360079
X0351999
X0372371Y0610626
X0090941
X0083733Y0623104
X0081714Y0663888
X0098425Y0716535
X0105415Y0725993
X0114894Y0735734
X0123875Y0746295
X0076311Y077724
X0236347Y0746295
X024622
X0247088Y0735734
X0256519
X0257855Y0726321
X0268932Y0726321
X0267659Y0716535
X0276693
X0317528Y0663888
X073611
X0695275Y0716535
X0686241
X0687514Y0726321
X0676438Y0726321
X0675102Y0735734
X0665671
X0664803Y0746295
X0654929
X1074378
X1084252
X108512Y0735734
X1094551
X1095887Y0726321
X1106963Y0726321
X110569Y0716535
X1114724
X1155559Y0663888
X15Y0662826
Y0716535
Y0724688
X1500167Y0734428
X15Y0744095
X011811Y0811024
X0106299Y084252
X0090551Y0874016
X0070866Y0905512
X0025709Y091376
Y0882264
Y0850768
X003752Y0819272
X0043681Y0787776
T05
X0976378Y0346457
Y0354331
Y0362205
Y0370079
Y0377953
Y0385827
Y0393701
Y0401575
Y0409449
Y0417323
Y0444882
X0984252
X0992126
X1
X1007874
X1015748
X1023622
X1031496
X103937
X1047244
T06
X134696Y0211779
X1366645Y0211819
X0492908Y0456227
X0492869Y0475913
X104637Y0866112
X1066055Y0866151
T07
X0998937Y0019685
X0177326Y0306981
T08
X1008937Y0019685
X1082159Y0026942
Y0036942
Y0046942
X1092159
Y0056942
X1082159
X1092159Y0036942
Y0026942
X1102159
X1112159
X1122159
X1132159
X1142159
X1152159
X1162159
X1172159
X1182159
X1192159
X1202159
X1212159
X1222159
X1232159
X1242159
Y0036942
Y0046942
X1232159
X1222159
X1212159
X1202159
X1192159
X1182159
X1172159
X1162159
X1152159
X1142159
X1132159
X1122159
X1112159
X1102159
Y0056942
X1112159
X1122159
X1132159
X1142159
X1152159
X1162159
X1172159
X1182159
X1192159
X1202159
X1212159
X1222159
X1232159
X1242159
X1232159Y0036942
X1222159
X1212159
X1202159
X1192159
X1182159
X1172159
X1162159
X1152159
X1142159
X1132159
X1122159
X1112159
X1102159
X125206
X1252159Y0046942
X1262159
Y0056942
X1272159
Y0046942
X1282159
Y0036961
X1292159
Y0046942
Y0056942
X1282159
X1302159
Y0046942
X1312159
Y0056942
X1322159
Y0046942
X1332159
Y0036961
Y0026942
X1322159
Y0036942
X1312159
Y0026942
X1302159
Y0036942
X1292159Y0026942
X1282159
X1272159
Y0036942
X1262159
Y0026942
X1252159
X125206Y0056942
X1332159
X1003937Y0295276
X0167326Y0306981
X1521123Y0493129
Y0503129
X1531123
X1541123
Y051313
Y052313
Y053313
X1531143
Y0543129
X1541123
Y0553129
Y056313
Y057313
Y058313
Y0593129
Y0603129
Y061313
Y062313
X1551123
Y061313
Y0603129
Y0593129
Y058313
Y0573228
Y056313
Y0553129
Y0543129
Y053313
Y052313
Y051313
Y0503129
Y0493129
X1541123
X1531143
X1531123Y051313
X1521123
Y052313
X1531123
X1521123Y053313
Y0543129
Y0553129
X1531123
Y056313
X1521123
Y057313
Y058313
X1531123
Y0573228
Y0593129
X1521123
Y0603129
X1531123
Y061313
X1521123
Y062313
X1531123
X0055118Y0622913
X0045118
Y0612913
X0055118
Y0602913
X0045118
Y0592913
X0055118
Y0582913
X0045118
Y0573012
X0055118Y0572913
Y0562913
X0045118
Y0552913
X0055118
Y0542913
Y0532913
Y0522913
X0045118
Y0512913
X0055118
Y0502913
X0045118
X0035118
Y0492913
X0045098
X0055118
X0025118
Y0502913
Y0512913
X0035118
Y0522913
X0025118
Y0532913
X0035118
X0045098
Y0542913
X0035118
X0025118
Y0552913
X0035118
Y0562913
X0025118
Y0573012
Y0582913
X0035118
Y0572913
Y0592913
X0025118
Y0602913
X0035118
Y0612913
X0025118
Y0622913
X0035118
Y0632913
X0045118
Y0642913
Y0652913
Y0662913
Y0672913
Y0682913
Y0692913
Y0702913
Y0712913
Y0722913
Y0732913
X0055118
Y0722913
Y0712913
Y0702913
Y0692913
Y0682913
Y0672913
Y0662913
Y0652913
Y0642913
Y0632913
X0025118
Y0642913
X0035118
Y0652913
X0025118
Y0662913
X0035118
Y0672913
X0025118
Y0682913
X0035118
Y0692913
X0025118
Y0702913
X0035118
Y0712913
X0025118
Y0722913
X0035118
Y0732913
Y0742913
X0045118
X0055118
X0025118
Y0732913
X1521123Y073313
Y0743129
X1531123
X1541123
Y073313
X1551123
Y072313
X1541123
Y071313
X1551123
Y0703129
X1541123
Y0693129
X1551123
Y068313
X1541123
Y067313
X1551123
Y066313
X1541123
Y0653129
X1551123
Y0643129
X1541123
Y063313
X1551123
X1531123
X1521123
Y0643129
X1531123
Y0653129
X1521123
Y066313
X1531123
Y067313
X1521123
Y068313
X1531123
Y0693129
X1521123
Y0703129
X1531123
Y071313
X1521123
Y072313
X1531123
Y073313
X1551123Y0743129
X1332047Y0928819
X1322047
X1312047
X1302047
X1292047
X1282047
X1272047
X1262047
X1252047
X1242047
X1232047
X1222047
X1212047
X1202047
X1192047
X1182047
X1172047
X1162047
X1152047
X1142047
X1132047
X1122047
X1112047
X1102047
X1092047
X1082047
X0912598
X0902598
X0892598
X0882598
X0872598
X0862598
X0852598
X0842598
X0832598
X0822598
X0812598
X0802598
X0792598
X0782598
X0772598
X0762598
X0752598
X0742598
X0732598
X0722598
X0712598
X0702598
X0692598
X0682598
X0672598
X0662598
X0494016
X0484016
X0474016
X0464016
X0454016
X0444016
X0434016
X0424016
X0414016
X0404016
X0394016
X0384016
X0374016
X0364016
X0354016
X0344016
X0334016
X0324016
X0314016
X0304016
X0294016
X0284016
X0274016
X0264016
X0254016
X0244016
Y0938819
Y0948819
X0254016
Y0958819
X0264016
Y0948819
X0274016
Y0958819
X0284016
Y0948819
X0294016
Y0958819
X0304016
Y0948819
Y0938819
X0294016
X0284016
X0274016
X0264016
X0254016
X0244016Y0958819
X0314016
Y0948819
X0324016
Y0958819
X0334016
Y0948819
X0344016
Y0958819
X0354016
Y0948819
X0364016
Y0958819
X0374016
Y0948819
X0384016
Y0958819
X0394016
Y0948819
X0404016
Y0958819
X0413917
X0414016Y0948819
X0424016
Y0958819
X0434016
Y0948819
X0444016
Y0938839
X0454016
Y0948819
Y0958819
X0444016
X0464016
Y0948819
Y0938819
X0434016
X0424016
X0413917
X0404016
X0394016
X0384016
X0374016
X0364016
X0354016
X0344016
X0334016
X0324016
X0314016
X0474016
Y0948819
Y0958819
X0484016
Y0948819
X0494016
Y0938839
X0484016Y0938819
X0494016Y0958819
X0662598
X0672598
Y0948819
X0682598
Y0958819
X0692598
Y0948819
X0702598
Y0958819
X0712598
Y0948819
X0722598
Y0958819
X0732598
Y0948819
X0742598
Y0958819
X0752598
Y0948819
X0762598
Y0958819
X0772598
Y0948819
Y0938819
X0762598
X0752598
X0742598
X0732598
X0722598
X0712598
X0702598
X0692598
X0682598
X0672598
X0662598
Y0948819
X0782598
Y0958819
X0792598
Y0948819
X0802598
Y0958819
X0812598
Y0948819
X0822598
Y0958819
X08325
X0832598Y0948819
X0842598
Y0958819
X0852598
Y0948819
X0862598
Y0938839
X0872598
Y0948819
Y0958819
X0862598
X0882598
Y0948819
X0892598
Y0958819
X0902598
Y0948819
X0912598
Y0938839
X0902598Y0938819
X0892598
X0882598
X0852598
X0842598
X08325
X0822598
X0812598
X0802598
X0792598
X0782598
X0912598Y0958819
X1082047
X1092047
Y0948819
X1082047
Y0938819
X1092047
X1102047
Y0948819
Y0958819
X1112047
Y0948819
X1122047
Y0958819
X1132047
Y0948819
X1142047
Y0958819
X1152047
Y0948819
X1162047
Y0958819
X1172047
Y0948819
X1182047
Y0958819
X1192047
Y0948819
X1202047
Y0958819
X1212047
Y0948819
X1222047
Y0958819
X1232047
Y0948819
X1242047
Y0958819
Y0938819
X1232047
X1222047
X1212047
X1202047
X1192047
X1182047
X1172047
X1162047
X1152047
X1142047
X1132047
X1122047
X1112047
X1251949
X1252047Y0948819
X1262047
Y0958819
X1272047
Y0948819
X1282047
Y0938839
X1292047
Y0948819
Y0958819
X1282047
X1302047
Y0948819
X1312047
Y0958819
X1322047
Y0948819
X1332047
Y0938839
X1322047Y0938819
X1312047
X1302047
X1272047
X1262047
X1251949Y0958819
X1332047
T09
X0074803Y0137795
X0102362Y0149606
X0200787Y0122047
X0192913Y007874
X0299213Y011811
X0874016Y0055118
X15Y0153543
X1523622Y0251717
X1551181Y025378
X1561181
Y0263779
Y027378
Y028378
X1551181
Y027378
Y0263779
Y0243779
X1561181
Y023378
X1551181
X0181102Y022441
X0188976Y0173228
X0154528Y0212598
X0144685
X0232535Y0385827
X0216535Y0412402
Y0422244
Y0456693
Y0466535
X0190782Y0465737
X0452756Y0417323
X0488189Y0416339
Y0426181
X0522453Y0426602
Y041676
X0515748Y0389764
X1531496Y0366142
X15Y0795276
T10
X0072677Y0046614
X0082677
Y0056614
X0072677
Y0066614
X0082677
Y0076614
X0072677
Y0086614
X0082677
Y0096614
X0072677
Y0106614
X0082677
X0308898Y0059055
Y0049055
Y0039055
X0318898
Y0049055
Y0059055
X0785273Y0035708
Y0025708
X0795272
Y0035708
X0805272
Y0025708
X0815273
Y0035708
X0825272
Y0025708
X0835273
Y0035708
X0845273
Y0025708
X0992126Y0111417
X1002126
Y0121417
X0992126
Y0131417
X1002126
Y0141417
X0992126
Y0151417
X1002126
Y0161417
X0992126
Y0171417
X1002126
X1472442Y0840079
Y0850079
Y0860079
Y0870079
Y0880079
Y0890079
Y0900079
X1482442
Y0890079
Y0880079
Y0870079
Y0860079
Y0850079
Y0840079
T11
X0048207Y0211811
Y022441
Y0237008
X0048185Y0267717
Y0280315
Y0292913
T12
X0407913Y0134832
X0777913
X0407913Y0329832
X0777913
T13
X1062113Y002645
X1352206Y0026395
X1523622Y0023622
X0043307Y0169291
X0149606Y0397638
X0751968Y0389764
X1425197Y0425197
X1520576Y0473082
X0055665Y0472866
X005561Y0762959
X1520631Y0763175
X1352094Y0928272
X1062002Y0928327
X1019685Y0826772
X0932646Y0928272
X0642553Y0928327
X0514063Y0928272
X022397Y0928327
X0066929Y096063
X1488189Y0940945
T14
X0031496Y004124
Y011624
X0663287Y0031496
X0738287
X153937Y0836516
Y0911516
T15
X0505913Y0144882
Y0319882
T16
X0679913Y0144882
Y0319882
M30
