G04*
G04 #@! TF.GenerationSoftware,Altium Limited,Altium Designer,20.0.13 (296)*
G04*
G04 Layer_Color=8421504*
%FSLAX25Y25*%
%MOIN*%
G70*
G01*
G75*
%ADD29R,0.04724X0.04134*%
%ADD30R,0.03937X0.04331*%
%ADD31R,0.08661X0.04331*%
%ADD32R,0.04331X0.03937*%
%ADD33R,0.09449X0.06693*%
%ADD34R,0.04331X0.05906*%
%ADD35R,0.10200X0.28700*%
G04:AMPARAMS|DCode=36|XSize=47.64mil|YSize=23.23mil|CornerRadius=5.81mil|HoleSize=0mil|Usage=FLASHONLY|Rotation=0.000|XOffset=0mil|YOffset=0mil|HoleType=Round|Shape=RoundedRectangle|*
%AMROUNDEDRECTD36*
21,1,0.04764,0.01161,0,0,0.0*
21,1,0.03602,0.02323,0,0,0.0*
1,1,0.01161,0.01801,-0.00581*
1,1,0.01161,-0.01801,-0.00581*
1,1,0.01161,-0.01801,0.00581*
1,1,0.01161,0.01801,0.00581*
%
%ADD36ROUNDEDRECTD36*%
G04:AMPARAMS|DCode=37|XSize=48.82mil|YSize=23.23mil|CornerRadius=2.9mil|HoleSize=0mil|Usage=FLASHONLY|Rotation=270.000|XOffset=0mil|YOffset=0mil|HoleType=Round|Shape=RoundedRectangle|*
%AMROUNDEDRECTD37*
21,1,0.04882,0.01742,0,0,270.0*
21,1,0.04301,0.02323,0,0,270.0*
1,1,0.00581,-0.00871,-0.02151*
1,1,0.00581,-0.00871,0.02151*
1,1,0.00581,0.00871,0.02151*
1,1,0.00581,0.00871,-0.02151*
%
%ADD37ROUNDEDRECTD37*%
%ADD38R,0.01221X0.02598*%
%ADD39R,0.02559X0.04331*%
G04:AMPARAMS|DCode=40|XSize=61.81mil|YSize=16.14mil|CornerRadius=2.02mil|HoleSize=0mil|Usage=FLASHONLY|Rotation=90.000|XOffset=0mil|YOffset=0mil|HoleType=Round|Shape=RoundedRectangle|*
%AMROUNDEDRECTD40*
21,1,0.06181,0.01211,0,0,90.0*
21,1,0.05778,0.01614,0,0,90.0*
1,1,0.00404,0.00605,0.02889*
1,1,0.00404,0.00605,-0.02889*
1,1,0.00404,-0.00605,-0.02889*
1,1,0.00404,-0.00605,0.02889*
%
%ADD40ROUNDEDRECTD40*%
G04:AMPARAMS|DCode=41|XSize=77.56mil|YSize=23.62mil|CornerRadius=2.95mil|HoleSize=0mil|Usage=FLASHONLY|Rotation=270.000|XOffset=0mil|YOffset=0mil|HoleType=Round|Shape=RoundedRectangle|*
%AMROUNDEDRECTD41*
21,1,0.07756,0.01772,0,0,270.0*
21,1,0.07165,0.02362,0,0,270.0*
1,1,0.00591,-0.00886,-0.03583*
1,1,0.00591,-0.00886,0.03583*
1,1,0.00591,0.00886,0.03583*
1,1,0.00591,0.00886,-0.03583*
%
%ADD41ROUNDEDRECTD41*%
G04:AMPARAMS|DCode=42|XSize=77.56mil|YSize=23.62mil|CornerRadius=2.95mil|HoleSize=0mil|Usage=FLASHONLY|Rotation=180.000|XOffset=0mil|YOffset=0mil|HoleType=Round|Shape=RoundedRectangle|*
%AMROUNDEDRECTD42*
21,1,0.07756,0.01772,0,0,180.0*
21,1,0.07165,0.02362,0,0,180.0*
1,1,0.00591,-0.03583,0.00886*
1,1,0.00591,0.03583,0.00886*
1,1,0.00591,0.03583,-0.00886*
1,1,0.00591,-0.03583,-0.00886*
%
%ADD42ROUNDEDRECTD42*%
%ADD43R,0.05906X0.05118*%
%ADD44R,0.03937X0.03543*%
%ADD45R,0.01181X0.06299*%
%ADD46R,0.06299X0.01181*%
%ADD47R,0.11811X0.08268*%
%ADD48R,0.06299X0.03150*%
%ADD49R,0.03150X0.05118*%
%ADD50R,0.08268X0.11811*%
%ADD51R,0.05118X0.03150*%
%ADD52R,0.02000X0.08000*%
%ADD53R,0.05315X0.01575*%
%ADD54R,0.05906X0.05906*%
%ADD55O,0.01181X0.06496*%
%ADD56O,0.06496X0.01181*%
%ADD57C,0.05118*%
%ADD58R,0.04331X0.08661*%
%ADD59R,0.04724X0.06000*%
%ADD60R,0.04134X0.04724*%
G04:AMPARAMS|DCode=61|XSize=48.82mil|YSize=23.23mil|CornerRadius=2.9mil|HoleSize=0mil|Usage=FLASHONLY|Rotation=0.000|XOffset=0mil|YOffset=0mil|HoleType=Round|Shape=RoundedRectangle|*
%AMROUNDEDRECTD61*
21,1,0.04882,0.01742,0,0,0.0*
21,1,0.04301,0.02323,0,0,0.0*
1,1,0.00581,0.02151,-0.00871*
1,1,0.00581,-0.02151,-0.00871*
1,1,0.00581,-0.02151,0.00871*
1,1,0.00581,0.02151,0.00871*
%
%ADD61ROUNDEDRECTD61*%
%ADD62R,0.06000X0.04724*%
%ADD63R,0.05906X0.04331*%
G04:AMPARAMS|DCode=64|XSize=47.64mil|YSize=23.23mil|CornerRadius=5.81mil|HoleSize=0mil|Usage=FLASHONLY|Rotation=90.000|XOffset=0mil|YOffset=0mil|HoleType=Round|Shape=RoundedRectangle|*
%AMROUNDEDRECTD64*
21,1,0.04764,0.01161,0,0,90.0*
21,1,0.03602,0.02323,0,0,90.0*
1,1,0.01161,0.00581,0.01801*
1,1,0.01161,0.00581,-0.01801*
1,1,0.01161,-0.00581,-0.01801*
1,1,0.01161,-0.00581,0.01801*
%
%ADD64ROUNDEDRECTD64*%
D29*
X360987Y18209D02*
D03*
Y10925D02*
D03*
X964567Y346752D02*
D03*
Y354035D02*
D03*
X1059055Y389469D02*
D03*
Y382185D02*
D03*
X1047244Y389469D02*
D03*
Y382185D02*
D03*
X1492126Y319193D02*
D03*
Y326476D02*
D03*
X1531496Y314665D02*
D03*
Y307382D02*
D03*
X1389764Y216240D02*
D03*
Y208957D02*
D03*
X1413386Y283169D02*
D03*
Y275886D02*
D03*
X1393701Y252264D02*
D03*
Y259547D02*
D03*
X964567Y409744D02*
D03*
Y417028D02*
D03*
Y393996D02*
D03*
Y401279D02*
D03*
Y378248D02*
D03*
Y385531D02*
D03*
Y362500D02*
D03*
Y369783D02*
D03*
D30*
X244094Y110827D02*
D03*
Y117520D02*
D03*
X190728Y45079D02*
D03*
Y51772D02*
D03*
X1397638Y299803D02*
D03*
Y306496D02*
D03*
X1421260Y299803D02*
D03*
Y306496D02*
D03*
X1444882Y299803D02*
D03*
Y306496D02*
D03*
X1492126Y209252D02*
D03*
Y215945D02*
D03*
X1511811Y209252D02*
D03*
Y215945D02*
D03*
X1492126Y185630D02*
D03*
Y192323D02*
D03*
X1511811Y185630D02*
D03*
Y192323D02*
D03*
X1433071Y276181D02*
D03*
Y282874D02*
D03*
X1409449Y209252D02*
D03*
Y215945D02*
D03*
X544606Y416732D02*
D03*
Y423425D02*
D03*
X568228Y416732D02*
D03*
Y423425D02*
D03*
X128622Y25591D02*
D03*
Y32283D02*
D03*
X232283Y129331D02*
D03*
Y122638D02*
D03*
X259842Y8465D02*
D03*
Y15157D02*
D03*
D31*
X173228Y57480D02*
D03*
Y44882D02*
D03*
X279704Y18110D02*
D03*
Y5512D02*
D03*
X1051181Y336221D02*
D03*
Y348819D02*
D03*
D32*
X1473032Y374016D02*
D03*
X1479724D02*
D03*
X1465158Y208661D02*
D03*
X1471850D02*
D03*
X1465158Y326772D02*
D03*
X1471850D02*
D03*
X1461220Y389764D02*
D03*
X1467913D02*
D03*
X1507283Y318898D02*
D03*
X1500591D02*
D03*
X59646Y27559D02*
D03*
X66339D02*
D03*
D33*
X1381890Y282874D02*
D03*
Y268307D02*
D03*
D34*
X184291Y962402D02*
D03*
Y927362D02*
D03*
X174291Y962402D02*
D03*
Y927362D02*
D03*
X164291Y962402D02*
D03*
Y927362D02*
D03*
X154291Y962402D02*
D03*
Y927362D02*
D03*
X522559Y773819D02*
D03*
Y808858D02*
D03*
X532559Y773819D02*
D03*
Y808858D02*
D03*
X554055Y773819D02*
D03*
Y808858D02*
D03*
X564055Y773819D02*
D03*
Y808858D02*
D03*
D35*
X230908Y62992D02*
D03*
X249408D02*
D03*
D36*
X235216Y153347D02*
D03*
Y149606D02*
D03*
Y145866D02*
D03*
X245098D02*
D03*
Y153347D02*
D03*
D37*
X112874Y24783D02*
D03*
X109134Y33090D02*
D03*
X116614D02*
D03*
X122244Y141299D02*
D03*
X129724D02*
D03*
X125984Y149606D02*
D03*
X169488Y141516D02*
D03*
X176969D02*
D03*
X173228Y149823D02*
D03*
D38*
X755905Y444882D02*
D03*
X757874D02*
D03*
X759842D02*
D03*
Y450669D02*
D03*
X757874D02*
D03*
X755905D02*
D03*
D39*
X1476181Y355118D02*
D03*
X1472441D02*
D03*
X1468701D02*
D03*
Y345669D02*
D03*
X1476181D02*
D03*
D40*
X689272Y452244D02*
D03*
X691831D02*
D03*
X694390D02*
D03*
X696949D02*
D03*
X699508D02*
D03*
X702067D02*
D03*
X704626D02*
D03*
X707185D02*
D03*
X709744D02*
D03*
X712303D02*
D03*
Y429646D02*
D03*
X709744D02*
D03*
X707185D02*
D03*
X704626D02*
D03*
X702067D02*
D03*
X699508D02*
D03*
X696949D02*
D03*
X694390D02*
D03*
X691831D02*
D03*
X689272D02*
D03*
X240453Y452244D02*
D03*
X243012D02*
D03*
X245571D02*
D03*
X248130D02*
D03*
X250689D02*
D03*
X253248D02*
D03*
X255807D02*
D03*
X258366D02*
D03*
X260925D02*
D03*
X263484D02*
D03*
Y429646D02*
D03*
X260925D02*
D03*
X258366D02*
D03*
X255807D02*
D03*
X253248D02*
D03*
X250689D02*
D03*
X248130D02*
D03*
X245571D02*
D03*
X243012D02*
D03*
X240453D02*
D03*
X319193Y452244D02*
D03*
X321752D02*
D03*
X324311D02*
D03*
X326870D02*
D03*
X329429D02*
D03*
X331988D02*
D03*
X334547D02*
D03*
X337106D02*
D03*
X339665D02*
D03*
X342224D02*
D03*
Y429646D02*
D03*
X339665D02*
D03*
X337106D02*
D03*
X334547D02*
D03*
X331988D02*
D03*
X329429D02*
D03*
X326870D02*
D03*
X324311D02*
D03*
X321752D02*
D03*
X319193D02*
D03*
X358563Y452244D02*
D03*
X361122D02*
D03*
X363681D02*
D03*
X366240D02*
D03*
X368799D02*
D03*
X371358D02*
D03*
X373917D02*
D03*
X376476D02*
D03*
X379035D02*
D03*
X381594D02*
D03*
Y429646D02*
D03*
X379035D02*
D03*
X376476D02*
D03*
X373917D02*
D03*
X371358D02*
D03*
X368799D02*
D03*
X366240D02*
D03*
X363681D02*
D03*
X361122D02*
D03*
X358563D02*
D03*
X279823Y452244D02*
D03*
X282382D02*
D03*
X284941D02*
D03*
X287500D02*
D03*
X290059D02*
D03*
X292618D02*
D03*
X295177D02*
D03*
X297736D02*
D03*
X300295D02*
D03*
X302854D02*
D03*
Y429646D02*
D03*
X300295D02*
D03*
X297736D02*
D03*
X295177D02*
D03*
X292618D02*
D03*
X290059D02*
D03*
X287500D02*
D03*
X284941D02*
D03*
X282382D02*
D03*
X279823D02*
D03*
X397933Y452244D02*
D03*
X400492D02*
D03*
X403051D02*
D03*
X405610D02*
D03*
X408169D02*
D03*
X410728D02*
D03*
X413287D02*
D03*
X415846D02*
D03*
X418405D02*
D03*
X420965D02*
D03*
Y429646D02*
D03*
X418405D02*
D03*
X415846D02*
D03*
X413287D02*
D03*
X410728D02*
D03*
X408169D02*
D03*
X405610D02*
D03*
X403051D02*
D03*
X400492D02*
D03*
X397933D02*
D03*
X811319Y452244D02*
D03*
X813878D02*
D03*
X816437D02*
D03*
X818996D02*
D03*
X821555D02*
D03*
X824114D02*
D03*
X826673D02*
D03*
X829232D02*
D03*
X831791D02*
D03*
X834350D02*
D03*
Y429646D02*
D03*
X831791D02*
D03*
X829232D02*
D03*
X826673D02*
D03*
X824114D02*
D03*
X821555D02*
D03*
X818996D02*
D03*
X816437D02*
D03*
X813878D02*
D03*
X811319D02*
D03*
X850689Y452244D02*
D03*
X853248D02*
D03*
X855807D02*
D03*
X858366D02*
D03*
X860925D02*
D03*
X863484D02*
D03*
X866043D02*
D03*
X868602D02*
D03*
X871161D02*
D03*
X873720D02*
D03*
Y429646D02*
D03*
X871161D02*
D03*
X868602D02*
D03*
X866043D02*
D03*
X863484D02*
D03*
X860925D02*
D03*
X858366D02*
D03*
X855807D02*
D03*
X853248D02*
D03*
X850689D02*
D03*
X890059Y452244D02*
D03*
X892618D02*
D03*
X895177D02*
D03*
X897736D02*
D03*
X900295D02*
D03*
X902854D02*
D03*
X905413D02*
D03*
X907973D02*
D03*
X910532D02*
D03*
X913091D02*
D03*
Y429646D02*
D03*
X910532D02*
D03*
X907973D02*
D03*
X905413D02*
D03*
X902854D02*
D03*
X900295D02*
D03*
X897736D02*
D03*
X895177D02*
D03*
X892618D02*
D03*
X890059D02*
D03*
X960925Y314449D02*
D03*
X963484D02*
D03*
X966043D02*
D03*
X968602D02*
D03*
X971161D02*
D03*
X973720D02*
D03*
X976280D02*
D03*
X978839D02*
D03*
X981398D02*
D03*
X983957D02*
D03*
Y291850D02*
D03*
X981398D02*
D03*
X978839D02*
D03*
X976280D02*
D03*
X973720D02*
D03*
X971161D02*
D03*
X968602D02*
D03*
X966043D02*
D03*
X963484D02*
D03*
X960925D02*
D03*
X649902Y452244D02*
D03*
X652461D02*
D03*
X655020D02*
D03*
X657579D02*
D03*
X660138D02*
D03*
X662697D02*
D03*
X665256D02*
D03*
X667815D02*
D03*
X670374D02*
D03*
X672933D02*
D03*
Y429646D02*
D03*
X670374D02*
D03*
X667815D02*
D03*
X665256D02*
D03*
X662697D02*
D03*
X660138D02*
D03*
X657579D02*
D03*
X655020D02*
D03*
X652461D02*
D03*
X649902D02*
D03*
X929429Y452244D02*
D03*
X931988D02*
D03*
X934547D02*
D03*
X937106D02*
D03*
X939665D02*
D03*
X942224D02*
D03*
X944783D02*
D03*
X947342D02*
D03*
X949902D02*
D03*
X952461D02*
D03*
Y429646D02*
D03*
X949902D02*
D03*
X947342D02*
D03*
X944783D02*
D03*
X942224D02*
D03*
X939665D02*
D03*
X937106D02*
D03*
X934547D02*
D03*
X931988D02*
D03*
X929429D02*
D03*
D41*
X1011437Y45374D02*
D03*
X1006437D02*
D03*
X1001437D02*
D03*
X996437D02*
D03*
Y64862D02*
D03*
X1001437D02*
D03*
X1006437D02*
D03*
X1011437D02*
D03*
X614547Y812874D02*
D03*
X619547D02*
D03*
X624547D02*
D03*
X629547D02*
D03*
Y793425D02*
D03*
X624547D02*
D03*
X619547D02*
D03*
X614547D02*
D03*
X583051Y812874D02*
D03*
X588051D02*
D03*
X593051D02*
D03*
X598051D02*
D03*
Y793425D02*
D03*
X593051D02*
D03*
X588051D02*
D03*
X583051D02*
D03*
D42*
X29646Y374390D02*
D03*
Y379390D02*
D03*
Y384390D02*
D03*
Y389390D02*
D03*
X49095D02*
D03*
Y384390D02*
D03*
Y379390D02*
D03*
Y374390D02*
D03*
X41457Y913760D02*
D03*
Y918760D02*
D03*
Y923760D02*
D03*
Y928760D02*
D03*
X60905D02*
D03*
Y923760D02*
D03*
Y918760D02*
D03*
Y913760D02*
D03*
X41457Y882264D02*
D03*
Y887264D02*
D03*
Y892264D02*
D03*
Y897264D02*
D03*
X60905D02*
D03*
Y892264D02*
D03*
Y887264D02*
D03*
Y882264D02*
D03*
X41457Y850768D02*
D03*
Y855768D02*
D03*
Y860768D02*
D03*
Y865768D02*
D03*
X60905D02*
D03*
Y860768D02*
D03*
Y855768D02*
D03*
Y850768D02*
D03*
X53268Y819272D02*
D03*
Y824272D02*
D03*
Y829272D02*
D03*
Y834272D02*
D03*
X72716D02*
D03*
Y829272D02*
D03*
Y824272D02*
D03*
Y819272D02*
D03*
X65079Y787776D02*
D03*
Y792776D02*
D03*
Y797776D02*
D03*
Y802776D02*
D03*
X84528D02*
D03*
Y797776D02*
D03*
Y792776D02*
D03*
Y787776D02*
D03*
X45394Y427237D02*
D03*
Y432237D02*
D03*
Y437237D02*
D03*
Y442237D02*
D03*
X64842D02*
D03*
Y437237D02*
D03*
Y432237D02*
D03*
Y427237D02*
D03*
D43*
X1433071Y256469D02*
D03*
Y247468D02*
D03*
D44*
X1492126Y83114D02*
D03*
Y90114D02*
D03*
X1413386Y259405D02*
D03*
Y252406D02*
D03*
X1492126Y302713D02*
D03*
Y295713D02*
D03*
X1531496Y338146D02*
D03*
Y331146D02*
D03*
X1484252Y83114D02*
D03*
Y90114D02*
D03*
D45*
X1030512Y361221D02*
D03*
X1028543D02*
D03*
X1026575D02*
D03*
X1024606D02*
D03*
X1022638D02*
D03*
X1020669D02*
D03*
X1018701D02*
D03*
X1016732D02*
D03*
X1014764D02*
D03*
X1012795D02*
D03*
X1010827D02*
D03*
X1008858D02*
D03*
Y394685D02*
D03*
X1010827D02*
D03*
X1012795D02*
D03*
X1014764D02*
D03*
X1016732D02*
D03*
X1018701D02*
D03*
X1020669D02*
D03*
X1022638D02*
D03*
X1024606D02*
D03*
X1026575D02*
D03*
X1028543D02*
D03*
X1030512D02*
D03*
D46*
X1002953Y367126D02*
D03*
Y369094D02*
D03*
Y371063D02*
D03*
Y373031D02*
D03*
Y375000D02*
D03*
Y376969D02*
D03*
Y378937D02*
D03*
Y380906D02*
D03*
Y382874D02*
D03*
Y384842D02*
D03*
Y386811D02*
D03*
Y388779D02*
D03*
X1036417D02*
D03*
Y386811D02*
D03*
Y384842D02*
D03*
Y382874D02*
D03*
Y380906D02*
D03*
Y378937D02*
D03*
Y376969D02*
D03*
Y375000D02*
D03*
Y373031D02*
D03*
Y371063D02*
D03*
Y369094D02*
D03*
Y367126D02*
D03*
D47*
X88701Y306756D02*
D03*
Y262071D02*
D03*
X1560532Y133071D02*
D03*
Y103150D02*
D03*
X88678Y239433D02*
D03*
Y194747D02*
D03*
X1560532Y192126D02*
D03*
Y162205D02*
D03*
D48*
X77874Y296717D02*
D03*
Y286875D02*
D03*
Y281953D02*
D03*
Y277032D02*
D03*
Y272111D02*
D03*
Y291796D02*
D03*
X77851Y229393D02*
D03*
Y219551D02*
D03*
Y214629D02*
D03*
Y209708D02*
D03*
Y204787D02*
D03*
Y224472D02*
D03*
D49*
X142224Y357264D02*
D03*
X147146D02*
D03*
X152067D02*
D03*
X156988D02*
D03*
X146161Y261319D02*
D03*
X151083D02*
D03*
X156004D02*
D03*
X160925D02*
D03*
X1422244Y29035D02*
D03*
X1417323D02*
D03*
X1412402D02*
D03*
X1481299D02*
D03*
X1476378D02*
D03*
X1471457D02*
D03*
D50*
X132185Y346437D02*
D03*
X167027D02*
D03*
X136122Y250492D02*
D03*
X170965D02*
D03*
X1432283Y18209D02*
D03*
X1402362D02*
D03*
X1491339D02*
D03*
X1461417D02*
D03*
D51*
X1549705Y123031D02*
D03*
Y118110D02*
D03*
Y113189D02*
D03*
Y182087D02*
D03*
Y177165D02*
D03*
Y172244D02*
D03*
D52*
X663779Y153543D02*
D03*
X666929D02*
D03*
X663779Y136221D02*
D03*
X666929D02*
D03*
X654331Y153543D02*
D03*
X657480D02*
D03*
X654330Y136221D02*
D03*
X657480D02*
D03*
X648032Y153543D02*
D03*
X651181D02*
D03*
X648031Y136221D02*
D03*
X651181D02*
D03*
X638583Y153543D02*
D03*
X641732D02*
D03*
X638582Y136221D02*
D03*
X641732D02*
D03*
X632283Y153543D02*
D03*
X632283Y136221D02*
D03*
X622835Y153543D02*
D03*
X625984D02*
D03*
X622834Y136221D02*
D03*
X625984D02*
D03*
X616535Y153543D02*
D03*
X616535Y136221D02*
D03*
X607087Y153543D02*
D03*
X610236D02*
D03*
X607086Y136221D02*
D03*
X610236D02*
D03*
X600787Y153543D02*
D03*
X600787Y136221D02*
D03*
X591339Y153543D02*
D03*
X594488D02*
D03*
X591338Y136221D02*
D03*
X594488D02*
D03*
X585039Y153543D02*
D03*
X585039Y136221D02*
D03*
X575591Y153543D02*
D03*
X578740D02*
D03*
X575590Y136221D02*
D03*
X578740D02*
D03*
X569291Y153543D02*
D03*
X569291Y136221D02*
D03*
X559842Y153543D02*
D03*
X562992D02*
D03*
X559842Y136221D02*
D03*
X562992D02*
D03*
X550394Y153543D02*
D03*
X553543D02*
D03*
X550394Y136221D02*
D03*
X553543D02*
D03*
X544095Y153543D02*
D03*
X547244D02*
D03*
X544094Y136221D02*
D03*
X547244D02*
D03*
X534646Y153543D02*
D03*
X537795D02*
D03*
X534646Y136221D02*
D03*
X537795D02*
D03*
X528346Y153543D02*
D03*
X528346Y136221D02*
D03*
X518898Y153543D02*
D03*
X522047D02*
D03*
X518898Y136221D02*
D03*
X522047D02*
D03*
X670079Y153543D02*
D03*
X670078Y136221D02*
D03*
X635433Y153543D02*
D03*
X644882D02*
D03*
X660630D02*
D03*
X635433Y136221D02*
D03*
X644882D02*
D03*
X660630D02*
D03*
X603937Y153543D02*
D03*
X613386D02*
D03*
X619685D02*
D03*
X629134D02*
D03*
X603937Y136221D02*
D03*
X613386D02*
D03*
X619685D02*
D03*
X629134D02*
D03*
X572441Y153543D02*
D03*
X581890D02*
D03*
X588189D02*
D03*
X597638D02*
D03*
X572441Y136221D02*
D03*
X581890D02*
D03*
X588189D02*
D03*
X597638D02*
D03*
X540945Y153543D02*
D03*
X556693D02*
D03*
X566142D02*
D03*
X540945Y136221D02*
D03*
X556693D02*
D03*
X566142D02*
D03*
X515748Y153543D02*
D03*
X525197D02*
D03*
X531496D02*
D03*
X515748Y136221D02*
D03*
X525197D02*
D03*
X531496D02*
D03*
Y311221D02*
D03*
X525197D02*
D03*
X515748D02*
D03*
X531496Y328543D02*
D03*
X525197D02*
D03*
X515748D02*
D03*
X566142Y311221D02*
D03*
X556693D02*
D03*
X540945D02*
D03*
X566142Y328543D02*
D03*
X556693D02*
D03*
X540945D02*
D03*
X597638Y311221D02*
D03*
X588189D02*
D03*
X581890D02*
D03*
X572441D02*
D03*
X597638Y328543D02*
D03*
X588189D02*
D03*
X581890D02*
D03*
X572441D02*
D03*
X629134Y311221D02*
D03*
X619685D02*
D03*
X613386D02*
D03*
X603937D02*
D03*
X629134Y328543D02*
D03*
X619685D02*
D03*
X613386D02*
D03*
X603937D02*
D03*
X660630Y311221D02*
D03*
X644882D02*
D03*
X635433D02*
D03*
X660630Y328543D02*
D03*
X644882D02*
D03*
X635433D02*
D03*
X670078Y311221D02*
D03*
X670079Y328543D02*
D03*
X522047Y311221D02*
D03*
X518898D02*
D03*
X522047Y328543D02*
D03*
X518898D02*
D03*
X528346Y311221D02*
D03*
X528346Y328543D02*
D03*
X537795Y311221D02*
D03*
X534646D02*
D03*
X537795Y328543D02*
D03*
X534646D02*
D03*
X547244Y311221D02*
D03*
X544094D02*
D03*
X547244Y328543D02*
D03*
X544095D02*
D03*
X553543Y311221D02*
D03*
X550394D02*
D03*
X553543Y328543D02*
D03*
X550394D02*
D03*
X562992Y311221D02*
D03*
X559842D02*
D03*
X562992Y328543D02*
D03*
X559842D02*
D03*
X569291Y311221D02*
D03*
X569291Y328543D02*
D03*
X578740Y311221D02*
D03*
X575590D02*
D03*
X578740Y328543D02*
D03*
X575591D02*
D03*
X585039Y311221D02*
D03*
X585039Y328543D02*
D03*
X594488Y311221D02*
D03*
X591338D02*
D03*
X594488Y328543D02*
D03*
X591339D02*
D03*
X600787Y311221D02*
D03*
X600787Y328543D02*
D03*
X610236Y311221D02*
D03*
X607086D02*
D03*
X610236Y328543D02*
D03*
X607087D02*
D03*
X616535Y311221D02*
D03*
X616535Y328543D02*
D03*
X625984Y311221D02*
D03*
X622834D02*
D03*
X625984Y328543D02*
D03*
X622835D02*
D03*
X632283Y311221D02*
D03*
X632283Y328543D02*
D03*
X641732Y311221D02*
D03*
X638582D02*
D03*
X641732Y328543D02*
D03*
X638583D02*
D03*
X651181Y311221D02*
D03*
X648031D02*
D03*
X651181Y328543D02*
D03*
X648032D02*
D03*
X657480Y311221D02*
D03*
X654330D02*
D03*
X657480Y328543D02*
D03*
X654331D02*
D03*
X666929Y311221D02*
D03*
X663779D02*
D03*
X666929Y328543D02*
D03*
X663779D02*
D03*
D53*
X1551181Y55118D02*
D03*
Y52559D02*
D03*
Y50000D02*
D03*
Y47441D02*
D03*
Y44882D02*
D03*
D54*
X1561811Y46063D02*
D03*
Y53937D02*
D03*
D55*
X1465551Y281791D02*
D03*
X1467520D02*
D03*
X1469488D02*
D03*
X1471457D02*
D03*
X1473425D02*
D03*
X1475394D02*
D03*
X1477362D02*
D03*
X1479331D02*
D03*
X1481299D02*
D03*
X1483268D02*
D03*
X1485236D02*
D03*
X1487205D02*
D03*
X1489173D02*
D03*
X1491142D02*
D03*
X1493110D02*
D03*
X1495079D02*
D03*
Y237894D02*
D03*
X1493110D02*
D03*
X1491142D02*
D03*
X1489173D02*
D03*
X1487205D02*
D03*
X1485236D02*
D03*
X1483268D02*
D03*
X1481299D02*
D03*
X1479331D02*
D03*
X1477362D02*
D03*
X1475394D02*
D03*
X1473425D02*
D03*
X1471457D02*
D03*
X1469488D02*
D03*
X1467520D02*
D03*
X1465551D02*
D03*
D56*
X1502264Y274606D02*
D03*
Y272638D02*
D03*
Y270669D02*
D03*
Y268701D02*
D03*
Y266732D02*
D03*
Y264764D02*
D03*
Y262795D02*
D03*
Y260827D02*
D03*
Y258858D02*
D03*
Y256890D02*
D03*
Y254921D02*
D03*
Y252953D02*
D03*
Y250984D02*
D03*
Y249016D02*
D03*
Y247047D02*
D03*
Y245079D02*
D03*
X1458366D02*
D03*
Y247047D02*
D03*
Y249016D02*
D03*
Y250984D02*
D03*
Y252953D02*
D03*
Y254921D02*
D03*
Y256890D02*
D03*
Y258858D02*
D03*
Y260827D02*
D03*
Y262795D02*
D03*
Y264764D02*
D03*
Y266732D02*
D03*
Y268701D02*
D03*
Y270669D02*
D03*
Y272638D02*
D03*
Y274606D02*
D03*
D57*
X98425Y956693D02*
D03*
X1547244Y15748D02*
D03*
X1456693Y933071D02*
D03*
X70866Y165354D02*
D03*
X1421260Y393701D02*
D03*
X748032Y358268D02*
D03*
X177165Y393701D02*
D03*
X1015748Y795276D02*
D03*
D58*
X1025197Y338583D02*
D03*
X1037795D02*
D03*
X89245Y25302D02*
D03*
X76646D02*
D03*
X1037795Y314961D02*
D03*
X1025197D02*
D03*
D59*
X23559Y358268D02*
D03*
X31559D02*
D03*
X267653Y74803D02*
D03*
X275654D02*
D03*
X114110Y118110D02*
D03*
X122110D02*
D03*
X267653Y55118D02*
D03*
X275654D02*
D03*
X267653Y35433D02*
D03*
X275654D02*
D03*
X161354Y118110D02*
D03*
X169354D02*
D03*
X212535Y149606D02*
D03*
X220535D02*
D03*
X236283Y178900D02*
D03*
X228284D02*
D03*
X116874Y52559D02*
D03*
X108874D02*
D03*
X228284Y161417D02*
D03*
X236283D02*
D03*
X610299Y901575D02*
D03*
X602299D02*
D03*
X543370D02*
D03*
X535370D02*
D03*
X1472378Y216535D02*
D03*
X1480378D02*
D03*
X31433Y905512D02*
D03*
X39433D02*
D03*
X31433Y842520D02*
D03*
X39433D02*
D03*
X31433Y874016D02*
D03*
X39433D02*
D03*
X47181Y811024D02*
D03*
X55181D02*
D03*
X58992Y779528D02*
D03*
X66992D02*
D03*
X39307Y409449D02*
D03*
X47307D02*
D03*
D60*
X302854Y90551D02*
D03*
X295571D02*
D03*
X1456398Y374016D02*
D03*
X1449114D02*
D03*
X1389468Y236221D02*
D03*
X1382185D02*
D03*
X1500295Y295276D02*
D03*
X1507579D02*
D03*
X1456398Y342520D02*
D03*
X1449114D02*
D03*
X1039665Y456693D02*
D03*
X1046949D02*
D03*
X1023917D02*
D03*
X1031201D02*
D03*
X1008169D02*
D03*
X1015453D02*
D03*
X992421D02*
D03*
X999705D02*
D03*
X976673D02*
D03*
X983957D02*
D03*
D61*
X232067Y31299D02*
D03*
Y23819D02*
D03*
X240374Y27559D02*
D03*
D62*
X141732Y141453D02*
D03*
Y149453D02*
D03*
X342520Y7811D02*
D03*
Y15811D02*
D03*
X188976Y141669D02*
D03*
Y149669D02*
D03*
X219853Y132197D02*
D03*
Y124197D02*
D03*
X263779Y121984D02*
D03*
Y129984D02*
D03*
Y98362D02*
D03*
Y106362D02*
D03*
X1531496Y62929D02*
D03*
Y70929D02*
D03*
X1464567Y303087D02*
D03*
Y311087D02*
D03*
X1474879Y293516D02*
D03*
Y301516D02*
D03*
D63*
X623819Y876890D02*
D03*
X588779D02*
D03*
X623819Y886890D02*
D03*
X588779D02*
D03*
X556890Y876890D02*
D03*
X521850D02*
D03*
X556890Y886890D02*
D03*
X521850D02*
D03*
D64*
X207134Y44035D02*
D03*
X210874D02*
D03*
X214614D02*
D03*
Y53917D02*
D03*
X207134D02*
D03*
M02*
