G04*
G04 #@! TF.GenerationSoftware,Altium Limited,Altium Designer,20.0.13 (296)*
G04*
G04 Layer_Color=16711935*
%FSLAX25Y25*%
%MOIN*%
G70*
G01*
G75*
%ADD84R,0.06706X0.06706*%
%ADD97C,0.06706*%
%ADD98C,0.06824*%
%ADD99R,0.06824X0.06824*%
%ADD100R,0.07119X0.07119*%
%ADD101C,0.07119*%
%ADD102C,0.06194*%
%ADD103R,0.06194X0.06194*%
%ADD104R,0.05599X0.05599*%
%ADD105C,0.05599*%
%ADD106C,0.05997*%
%ADD107R,0.07099X0.07099*%
%ADD108C,0.06304*%
%ADD109R,0.07099X0.07099*%
%ADD110C,0.24422*%
%ADD111C,0.17800*%
%ADD112C,0.03800*%
%ADD113C,0.05398*%
%ADD114O,0.07099X0.04343*%
%ADD115O,0.04540X0.05721*%
%ADD116C,0.06800*%
%ADD117R,0.06800X0.06800*%
%ADD118R,0.06706X0.06706*%
%ADD119R,0.06194X0.06194*%
%ADD120R,0.05599X0.05599*%
%ADD121R,0.06800X0.06800*%
D84*
X45098Y492913D02*
D03*
X25118D02*
D03*
X1551123Y493129D02*
D03*
X1531143D02*
D03*
X1551181Y233780D02*
D03*
D97*
X192913Y78740D02*
D03*
X55118Y732913D02*
D03*
X45118D02*
D03*
X55118Y722913D02*
D03*
X45118D02*
D03*
X55118Y712913D02*
D03*
X45118D02*
D03*
X55118Y702913D02*
D03*
X45118D02*
D03*
X55118Y692913D02*
D03*
X45118D02*
D03*
X55118Y682913D02*
D03*
X45118D02*
D03*
X55118Y672913D02*
D03*
X45118D02*
D03*
X55118Y662913D02*
D03*
X45118D02*
D03*
X55118Y652913D02*
D03*
X45118D02*
D03*
X55118Y642913D02*
D03*
X45118D02*
D03*
X55118Y632913D02*
D03*
X45118D02*
D03*
X55118Y622913D02*
D03*
X45118D02*
D03*
X55118Y612913D02*
D03*
X45118D02*
D03*
X55118Y602913D02*
D03*
X45118D02*
D03*
X55118Y592913D02*
D03*
X45118D02*
D03*
X55118Y582913D02*
D03*
X45118D02*
D03*
X55118Y572913D02*
D03*
X45118Y573012D02*
D03*
X55118Y562913D02*
D03*
X45118D02*
D03*
X55118Y552913D02*
D03*
X45118D02*
D03*
X55118Y542913D02*
D03*
X45098D02*
D03*
X55118Y532913D02*
D03*
X45098D02*
D03*
X55118Y522913D02*
D03*
X45118D02*
D03*
X55118Y512913D02*
D03*
X45118D02*
D03*
X55118Y502913D02*
D03*
X45118D02*
D03*
X55118Y492913D02*
D03*
X45118Y742913D02*
D03*
X55118D02*
D03*
X35118D02*
D03*
X25118D02*
D03*
X35118Y492913D02*
D03*
X25118Y502913D02*
D03*
X35118D02*
D03*
X25118Y512913D02*
D03*
X35118D02*
D03*
X25118Y522913D02*
D03*
X35118D02*
D03*
X25118Y532913D02*
D03*
X35118D02*
D03*
X25118Y542913D02*
D03*
X35118D02*
D03*
X25118Y552913D02*
D03*
X35118D02*
D03*
X25118Y562913D02*
D03*
X35118D02*
D03*
X25118Y573012D02*
D03*
X35118Y572913D02*
D03*
X25118Y582913D02*
D03*
X35118D02*
D03*
X25118Y592913D02*
D03*
X35118D02*
D03*
X25118Y602913D02*
D03*
X35118D02*
D03*
X25118Y612913D02*
D03*
X35118D02*
D03*
X25118Y622913D02*
D03*
X35118D02*
D03*
X25118Y632913D02*
D03*
X35118D02*
D03*
X25118Y642913D02*
D03*
X35118D02*
D03*
X25118Y652913D02*
D03*
X35118D02*
D03*
X25118Y662913D02*
D03*
X35118D02*
D03*
X25118Y672913D02*
D03*
X35118D02*
D03*
X25118Y682913D02*
D03*
X35118D02*
D03*
X25118Y692913D02*
D03*
X35118D02*
D03*
X25118Y702913D02*
D03*
X35118D02*
D03*
X25118Y712913D02*
D03*
X35118D02*
D03*
X25118Y722913D02*
D03*
X35118D02*
D03*
X25118Y732913D02*
D03*
X35118D02*
D03*
X1541123Y733130D02*
D03*
X1551123D02*
D03*
X1541123Y723130D02*
D03*
X1551123D02*
D03*
X1541123Y713130D02*
D03*
X1551123D02*
D03*
X1541123Y703129D02*
D03*
X1551123D02*
D03*
X1541123Y693129D02*
D03*
X1551123D02*
D03*
X1541123Y683130D02*
D03*
X1551123D02*
D03*
X1541123Y673130D02*
D03*
X1551123D02*
D03*
X1541123Y663130D02*
D03*
X1551123D02*
D03*
X1541123Y653129D02*
D03*
X1551123D02*
D03*
X1541123Y643129D02*
D03*
X1551123D02*
D03*
X1541123Y633130D02*
D03*
X1551123D02*
D03*
X1541123Y623130D02*
D03*
X1551123D02*
D03*
X1541123Y613130D02*
D03*
X1551123D02*
D03*
X1541123Y603129D02*
D03*
X1551123D02*
D03*
X1541123Y593129D02*
D03*
X1551123D02*
D03*
X1541123Y583130D02*
D03*
X1551123D02*
D03*
X1541123Y573130D02*
D03*
X1551123Y573228D02*
D03*
X1541123Y563130D02*
D03*
X1551123D02*
D03*
X1541123Y553129D02*
D03*
X1551123D02*
D03*
X1541123Y543129D02*
D03*
X1551123D02*
D03*
X1541123Y533130D02*
D03*
X1551123D02*
D03*
X1541123Y523130D02*
D03*
X1551123D02*
D03*
X1541123Y513130D02*
D03*
X1551123D02*
D03*
X1541123Y503129D02*
D03*
X1551123D02*
D03*
X1541123Y493129D02*
D03*
X1551123Y743129D02*
D03*
X1541123D02*
D03*
X1521123D02*
D03*
X1531123D02*
D03*
X1521123Y493129D02*
D03*
X1531123Y503129D02*
D03*
X1521123D02*
D03*
X1531123Y513130D02*
D03*
X1521123D02*
D03*
X1531123Y523130D02*
D03*
X1521123D02*
D03*
X1531143Y533130D02*
D03*
X1521123D02*
D03*
X1531143Y543129D02*
D03*
X1521123D02*
D03*
X1531123Y553129D02*
D03*
X1521123D02*
D03*
X1531123Y563130D02*
D03*
X1521123D02*
D03*
X1531123Y573228D02*
D03*
X1521123Y573130D02*
D03*
X1531123Y583130D02*
D03*
X1521123D02*
D03*
X1531123Y593129D02*
D03*
X1521123D02*
D03*
X1531123Y603129D02*
D03*
X1521123D02*
D03*
X1531123Y613130D02*
D03*
X1521123D02*
D03*
X1531123Y623130D02*
D03*
X1521123D02*
D03*
X1531123Y633130D02*
D03*
X1521123D02*
D03*
X1531123Y643129D02*
D03*
X1521123D02*
D03*
X1531123Y653129D02*
D03*
X1521123D02*
D03*
X1531123Y663130D02*
D03*
X1521123D02*
D03*
X1531123Y673130D02*
D03*
X1521123D02*
D03*
X1531123Y683130D02*
D03*
X1521123D02*
D03*
X1531123Y693129D02*
D03*
X1521123D02*
D03*
X1531123Y703129D02*
D03*
X1521123D02*
D03*
X1531123Y713130D02*
D03*
X1521123D02*
D03*
X1531123Y723130D02*
D03*
X1521123D02*
D03*
X1531123Y733130D02*
D03*
X1521123D02*
D03*
X1561181Y283780D02*
D03*
Y273780D02*
D03*
Y263779D02*
D03*
Y253780D02*
D03*
Y243779D02*
D03*
Y233780D02*
D03*
X1551181Y283780D02*
D03*
Y273780D02*
D03*
Y263779D02*
D03*
Y253780D02*
D03*
Y243779D02*
D03*
X672598Y948819D02*
D03*
Y958819D02*
D03*
X682598Y948819D02*
D03*
Y958819D02*
D03*
X692598Y948819D02*
D03*
Y958819D02*
D03*
X702598Y948819D02*
D03*
Y958819D02*
D03*
X712598Y948819D02*
D03*
Y958819D02*
D03*
X722598Y948819D02*
D03*
Y958819D02*
D03*
X732598Y948819D02*
D03*
Y958819D02*
D03*
X742598Y948819D02*
D03*
Y958819D02*
D03*
X752598Y948819D02*
D03*
Y958819D02*
D03*
X762598Y948819D02*
D03*
Y958819D02*
D03*
X772598Y948819D02*
D03*
Y958819D02*
D03*
X782598Y948819D02*
D03*
Y958819D02*
D03*
X792598Y948819D02*
D03*
Y958819D02*
D03*
X802598Y948819D02*
D03*
Y958819D02*
D03*
X812598Y948819D02*
D03*
Y958819D02*
D03*
X822598Y948819D02*
D03*
Y958819D02*
D03*
X832598Y948819D02*
D03*
X832500Y958819D02*
D03*
X842598Y948819D02*
D03*
Y958819D02*
D03*
X852598Y948819D02*
D03*
Y958819D02*
D03*
X862598Y948819D02*
D03*
Y958819D02*
D03*
X872598Y948819D02*
D03*
Y958819D02*
D03*
X882598Y948819D02*
D03*
Y958819D02*
D03*
X892598Y948819D02*
D03*
Y958819D02*
D03*
X902598Y948819D02*
D03*
Y958819D02*
D03*
X912598Y948819D02*
D03*
X662598Y958819D02*
D03*
Y948819D02*
D03*
Y928819D02*
D03*
Y938819D02*
D03*
X912598Y928819D02*
D03*
X902598Y938819D02*
D03*
Y928819D02*
D03*
X892598Y938819D02*
D03*
Y928819D02*
D03*
X882598Y938819D02*
D03*
Y928819D02*
D03*
X872598Y938839D02*
D03*
Y928819D02*
D03*
X862598Y938839D02*
D03*
Y928819D02*
D03*
X852598Y938819D02*
D03*
Y928819D02*
D03*
X842598Y938819D02*
D03*
Y928819D02*
D03*
X832500Y938819D02*
D03*
X832598Y928819D02*
D03*
X822598Y938819D02*
D03*
Y928819D02*
D03*
X812598Y938819D02*
D03*
Y928819D02*
D03*
X802598Y938819D02*
D03*
Y928819D02*
D03*
X792598Y938819D02*
D03*
Y928819D02*
D03*
X782598Y938819D02*
D03*
Y928819D02*
D03*
X772598Y938819D02*
D03*
Y928819D02*
D03*
X762598Y938819D02*
D03*
Y928819D02*
D03*
X752598Y938819D02*
D03*
Y928819D02*
D03*
X742598Y938819D02*
D03*
Y928819D02*
D03*
X732598Y938819D02*
D03*
Y928819D02*
D03*
X722598Y938819D02*
D03*
Y928819D02*
D03*
X712598Y938819D02*
D03*
Y928819D02*
D03*
X702598Y938819D02*
D03*
Y928819D02*
D03*
X692598Y938819D02*
D03*
Y928819D02*
D03*
X682598Y938819D02*
D03*
Y928819D02*
D03*
X672598Y938819D02*
D03*
Y928819D02*
D03*
X1092047Y948819D02*
D03*
Y958819D02*
D03*
X1102047Y948819D02*
D03*
Y958819D02*
D03*
X1112047Y948819D02*
D03*
Y958819D02*
D03*
X1122047Y948819D02*
D03*
Y958819D02*
D03*
X1132047Y948819D02*
D03*
Y958819D02*
D03*
X1142047Y948819D02*
D03*
Y958819D02*
D03*
X1152047Y948819D02*
D03*
Y958819D02*
D03*
X1162047Y948819D02*
D03*
Y958819D02*
D03*
X1172047Y948819D02*
D03*
Y958819D02*
D03*
X1182047Y948819D02*
D03*
Y958819D02*
D03*
X1192047Y948819D02*
D03*
Y958819D02*
D03*
X1202047Y948819D02*
D03*
Y958819D02*
D03*
X1212047Y948819D02*
D03*
Y958819D02*
D03*
X1222047Y948819D02*
D03*
Y958819D02*
D03*
X1232047Y948819D02*
D03*
Y958819D02*
D03*
X1242047Y948819D02*
D03*
Y958819D02*
D03*
X1252047Y948819D02*
D03*
X1251949Y958819D02*
D03*
X1262047Y948819D02*
D03*
Y958819D02*
D03*
X1272047Y948819D02*
D03*
Y958819D02*
D03*
X1282047Y948819D02*
D03*
Y958819D02*
D03*
X1292047Y948819D02*
D03*
Y958819D02*
D03*
X1302047Y948819D02*
D03*
Y958819D02*
D03*
X1312047Y948819D02*
D03*
Y958819D02*
D03*
X1322047Y948819D02*
D03*
Y958819D02*
D03*
X1332047Y948819D02*
D03*
X1082047Y958819D02*
D03*
Y948819D02*
D03*
Y928819D02*
D03*
Y938819D02*
D03*
X1332047Y928819D02*
D03*
X1322047Y938819D02*
D03*
Y928819D02*
D03*
X1312047Y938819D02*
D03*
Y928819D02*
D03*
X1302047Y938819D02*
D03*
Y928819D02*
D03*
X1292047Y938839D02*
D03*
Y928819D02*
D03*
X1282047Y938839D02*
D03*
Y928819D02*
D03*
X1272047Y938819D02*
D03*
Y928819D02*
D03*
X1262047Y938819D02*
D03*
Y928819D02*
D03*
X1251949Y938819D02*
D03*
X1252047Y928819D02*
D03*
X1242047Y938819D02*
D03*
Y928819D02*
D03*
X1232047Y938819D02*
D03*
Y928819D02*
D03*
X1222047Y938819D02*
D03*
Y928819D02*
D03*
X1212047Y938819D02*
D03*
Y928819D02*
D03*
X1202047Y938819D02*
D03*
Y928819D02*
D03*
X1192047Y938819D02*
D03*
Y928819D02*
D03*
X1182047Y938819D02*
D03*
Y928819D02*
D03*
X1172047Y938819D02*
D03*
Y928819D02*
D03*
X1162047Y938819D02*
D03*
Y928819D02*
D03*
X1152047Y938819D02*
D03*
Y928819D02*
D03*
X1142047Y938819D02*
D03*
Y928819D02*
D03*
X1132047Y938819D02*
D03*
Y928819D02*
D03*
X1122047Y938819D02*
D03*
Y928819D02*
D03*
X1112047Y938819D02*
D03*
Y928819D02*
D03*
X1102047Y938819D02*
D03*
Y928819D02*
D03*
X1092047Y938819D02*
D03*
Y928819D02*
D03*
X1092159Y46942D02*
D03*
Y56942D02*
D03*
X1102159Y46942D02*
D03*
Y56942D02*
D03*
X1112159Y46942D02*
D03*
Y56942D02*
D03*
X1122159Y46942D02*
D03*
Y56942D02*
D03*
X1132159Y46942D02*
D03*
Y56942D02*
D03*
X1142159Y46942D02*
D03*
Y56942D02*
D03*
X1152159Y46942D02*
D03*
Y56942D02*
D03*
X1162159Y46942D02*
D03*
Y56942D02*
D03*
X1172159Y46942D02*
D03*
Y56942D02*
D03*
X1182159Y46942D02*
D03*
Y56942D02*
D03*
X1192159Y46942D02*
D03*
Y56942D02*
D03*
X1202159Y46942D02*
D03*
Y56942D02*
D03*
X1212159Y46942D02*
D03*
Y56942D02*
D03*
X1222159Y46942D02*
D03*
Y56942D02*
D03*
X1232159Y46942D02*
D03*
Y56942D02*
D03*
X1242159Y46942D02*
D03*
Y56942D02*
D03*
X1252159Y46942D02*
D03*
X1252060Y56942D02*
D03*
X1262159Y46942D02*
D03*
Y56942D02*
D03*
X1272159Y46942D02*
D03*
Y56942D02*
D03*
X1282159Y46942D02*
D03*
Y56942D02*
D03*
X1292159Y46942D02*
D03*
Y56942D02*
D03*
X1302159Y46942D02*
D03*
Y56942D02*
D03*
X1312159Y46942D02*
D03*
Y56942D02*
D03*
X1322159Y46942D02*
D03*
Y56942D02*
D03*
X1332159Y46942D02*
D03*
X1082159Y56942D02*
D03*
Y46942D02*
D03*
Y26942D02*
D03*
Y36942D02*
D03*
X1332159Y26942D02*
D03*
X1322159Y36942D02*
D03*
Y26942D02*
D03*
X1312159Y36942D02*
D03*
Y26942D02*
D03*
X1302159Y36942D02*
D03*
Y26942D02*
D03*
X1292159Y36961D02*
D03*
Y26942D02*
D03*
X1282159Y36961D02*
D03*
Y26942D02*
D03*
X1272159Y36942D02*
D03*
Y26942D02*
D03*
X1262159Y36942D02*
D03*
Y26942D02*
D03*
X1252060Y36942D02*
D03*
X1252159Y26942D02*
D03*
X1242159Y36942D02*
D03*
Y26942D02*
D03*
X1232159Y36942D02*
D03*
Y26942D02*
D03*
X1222159Y36942D02*
D03*
Y26942D02*
D03*
X1212159Y36942D02*
D03*
Y26942D02*
D03*
X1202159Y36942D02*
D03*
Y26942D02*
D03*
X1192159Y36942D02*
D03*
Y26942D02*
D03*
X1182159Y36942D02*
D03*
Y26942D02*
D03*
X1172159Y36942D02*
D03*
Y26942D02*
D03*
X1162159Y36942D02*
D03*
Y26942D02*
D03*
X1152159Y36942D02*
D03*
Y26942D02*
D03*
X1142159Y36942D02*
D03*
Y26942D02*
D03*
X1132159Y36942D02*
D03*
Y26942D02*
D03*
X1122159Y36942D02*
D03*
Y26942D02*
D03*
X1112159Y36942D02*
D03*
Y26942D02*
D03*
X1102159Y36942D02*
D03*
Y26942D02*
D03*
X1092159Y36942D02*
D03*
Y26942D02*
D03*
X254016Y948819D02*
D03*
Y958819D02*
D03*
X264016Y948819D02*
D03*
Y958819D02*
D03*
X274016Y948819D02*
D03*
Y958819D02*
D03*
X284016Y948819D02*
D03*
Y958819D02*
D03*
X294016Y948819D02*
D03*
Y958819D02*
D03*
X304016Y948819D02*
D03*
Y958819D02*
D03*
X314016Y948819D02*
D03*
Y958819D02*
D03*
X324016Y948819D02*
D03*
Y958819D02*
D03*
X334016Y948819D02*
D03*
Y958819D02*
D03*
X344016Y948819D02*
D03*
Y958819D02*
D03*
X354016Y948819D02*
D03*
Y958819D02*
D03*
X364016Y948819D02*
D03*
Y958819D02*
D03*
X374016Y948819D02*
D03*
Y958819D02*
D03*
X384016Y948819D02*
D03*
Y958819D02*
D03*
X394016Y948819D02*
D03*
Y958819D02*
D03*
X404016Y948819D02*
D03*
Y958819D02*
D03*
X414016Y948819D02*
D03*
X413917Y958819D02*
D03*
X424016Y948819D02*
D03*
Y958819D02*
D03*
X434016Y948819D02*
D03*
Y958819D02*
D03*
X444016Y948819D02*
D03*
Y958819D02*
D03*
X454016Y948819D02*
D03*
Y958819D02*
D03*
X464016Y948819D02*
D03*
Y958819D02*
D03*
X474016Y948819D02*
D03*
Y958819D02*
D03*
X484016Y948819D02*
D03*
Y958819D02*
D03*
X494016Y948819D02*
D03*
X244016Y958819D02*
D03*
Y948819D02*
D03*
Y928819D02*
D03*
Y938819D02*
D03*
X494016Y928819D02*
D03*
X484016Y938819D02*
D03*
Y928819D02*
D03*
X474016Y938819D02*
D03*
Y928819D02*
D03*
X464016Y938819D02*
D03*
Y928819D02*
D03*
X454016Y938839D02*
D03*
Y928819D02*
D03*
X444016Y938839D02*
D03*
Y928819D02*
D03*
X434016Y938819D02*
D03*
Y928819D02*
D03*
X424016Y938819D02*
D03*
Y928819D02*
D03*
X413917Y938819D02*
D03*
X414016Y928819D02*
D03*
X404016Y938819D02*
D03*
Y928819D02*
D03*
X394016Y938819D02*
D03*
Y928819D02*
D03*
X384016Y938819D02*
D03*
Y928819D02*
D03*
X374016Y938819D02*
D03*
Y928819D02*
D03*
X364016Y938819D02*
D03*
Y928819D02*
D03*
X354016Y938819D02*
D03*
Y928819D02*
D03*
X344016Y938819D02*
D03*
Y928819D02*
D03*
X334016Y938819D02*
D03*
Y928819D02*
D03*
X324016Y938819D02*
D03*
Y928819D02*
D03*
X314016Y938819D02*
D03*
Y928819D02*
D03*
X304016Y938819D02*
D03*
Y928819D02*
D03*
X294016Y938819D02*
D03*
Y928819D02*
D03*
X284016Y938819D02*
D03*
Y928819D02*
D03*
X274016Y938819D02*
D03*
Y928819D02*
D03*
X264016Y938819D02*
D03*
Y928819D02*
D03*
X254016Y938819D02*
D03*
Y928819D02*
D03*
X102362Y149606D02*
D03*
X188976Y173228D02*
D03*
X200787Y122047D02*
D03*
X74803Y137795D02*
D03*
X1500000Y153543D02*
D03*
X299213Y118110D02*
D03*
X1523622Y251717D02*
D03*
X1531496Y366142D02*
D03*
X232535Y385827D02*
D03*
X190782Y465737D02*
D03*
X452756Y417323D02*
D03*
X874016Y55118D02*
D03*
X1500000Y795276D02*
D03*
X515748Y389764D02*
D03*
X181102Y224410D02*
D03*
D98*
X318898Y59055D02*
D03*
X308898Y39055D02*
D03*
Y49055D02*
D03*
X318898Y39055D02*
D03*
Y49055D02*
D03*
D99*
X308898Y59055D02*
D03*
D100*
X48207Y211811D02*
D03*
X48185Y267717D02*
D03*
D101*
X48207Y224410D02*
D03*
Y237008D02*
D03*
X48185Y280315D02*
D03*
Y292913D02*
D03*
D102*
X1472442Y900079D02*
D03*
X1482442D02*
D03*
X1472442Y890079D02*
D03*
X1482442D02*
D03*
X1472442Y880079D02*
D03*
X1482442D02*
D03*
X1472442Y870079D02*
D03*
X1482442D02*
D03*
X1472442Y860079D02*
D03*
X1482442D02*
D03*
X1472442Y850079D02*
D03*
X1482442D02*
D03*
X1472442Y840079D02*
D03*
X82677Y46614D02*
D03*
X72677D02*
D03*
X82677Y56614D02*
D03*
X72677D02*
D03*
X82677Y66614D02*
D03*
X72677D02*
D03*
X82677Y76614D02*
D03*
X72677D02*
D03*
X82677Y86614D02*
D03*
X72677D02*
D03*
X82677Y96614D02*
D03*
X72677D02*
D03*
X82677Y106614D02*
D03*
X785273Y25708D02*
D03*
Y35708D02*
D03*
X795272Y25708D02*
D03*
Y35708D02*
D03*
X805272Y25708D02*
D03*
Y35708D02*
D03*
X815273Y25708D02*
D03*
Y35708D02*
D03*
X825272Y25708D02*
D03*
Y35708D02*
D03*
X835273Y25708D02*
D03*
Y35708D02*
D03*
X845273Y25708D02*
D03*
X1002126Y111417D02*
D03*
X992126D02*
D03*
X1002126Y121417D02*
D03*
X992126D02*
D03*
X1002126Y131417D02*
D03*
X992126D02*
D03*
X1002126Y141417D02*
D03*
X992126D02*
D03*
X1002126Y151417D02*
D03*
X992126D02*
D03*
X1002126Y161417D02*
D03*
X992126D02*
D03*
X1002126Y171417D02*
D03*
D103*
X1482442Y840079D02*
D03*
X72677Y106614D02*
D03*
X992126Y171417D02*
D03*
D104*
X976378Y417323D02*
D03*
D105*
Y409449D02*
D03*
Y401575D02*
D03*
Y393701D02*
D03*
Y385827D02*
D03*
Y377953D02*
D03*
Y370079D02*
D03*
Y362205D02*
D03*
Y354331D02*
D03*
Y346457D02*
D03*
Y444882D02*
D03*
X984252D02*
D03*
X992126D02*
D03*
X1000000D02*
D03*
X1007874D02*
D03*
X1015748D02*
D03*
X1023622D02*
D03*
X1031496D02*
D03*
X1039370D02*
D03*
D106*
X1066055Y866151D02*
D03*
X1046370Y866112D02*
D03*
X492869Y475913D02*
D03*
X492908Y456227D02*
D03*
X1346960Y211779D02*
D03*
X1366645Y211819D02*
D03*
D107*
X1008937Y19685D02*
D03*
X167326Y306981D02*
D03*
D108*
X998937Y19685D02*
D03*
X177326Y306981D02*
D03*
D109*
X1003937Y295276D02*
D03*
D110*
X55610Y762959D02*
D03*
X55665Y472866D02*
D03*
X1520576Y473082D02*
D03*
X1520631Y763175D02*
D03*
X66929Y960630D02*
D03*
X1539370Y836516D02*
D03*
Y911516D02*
D03*
X932646Y928272D02*
D03*
X642553Y928327D02*
D03*
X1352094Y928272D02*
D03*
X1062002Y928327D02*
D03*
X1352206Y26395D02*
D03*
X1062113Y26450D02*
D03*
X514063Y928272D02*
D03*
X223970Y928327D02*
D03*
X1523622Y23622D02*
D03*
X1488189Y940945D02*
D03*
X43307Y169291D02*
D03*
X1425197Y425197D02*
D03*
X751968Y389764D02*
D03*
X149606Y397638D02*
D03*
X1019685Y826772D02*
D03*
X31496Y41240D02*
D03*
Y116240D02*
D03*
X738287Y31496D02*
D03*
X663287D02*
D03*
D111*
X777913Y134832D02*
D03*
X407913Y329832D02*
D03*
Y134832D02*
D03*
X777913Y329832D02*
D03*
D112*
X505913Y144882D02*
D03*
Y319882D02*
D03*
D113*
X679913Y144882D02*
D03*
Y319882D02*
D03*
D114*
X1561811Y63779D02*
D03*
Y36220D02*
D03*
D115*
X1551181Y40157D02*
D03*
Y59842D02*
D03*
D116*
X488189Y416339D02*
D03*
X144685Y212598D02*
D03*
X522453Y416760D02*
D03*
X216535Y412402D02*
D03*
Y456693D02*
D03*
D117*
X488189Y426181D02*
D03*
X522453Y426602D02*
D03*
X216535Y422244D02*
D03*
Y466535D02*
D03*
D118*
X912598Y958819D02*
D03*
Y938839D02*
D03*
X1332047Y958819D02*
D03*
Y938839D02*
D03*
X1332159Y56942D02*
D03*
Y36961D02*
D03*
X494016Y958819D02*
D03*
Y938839D02*
D03*
D119*
X845273Y35708D02*
D03*
D120*
X1047244Y444882D02*
D03*
D121*
X154528Y212598D02*
D03*
M02*
